<svg width="229" height="85" viewBox="0 0 229 85" fill="none" xmlns="http://www.w3.org/2000/svg">
<path d="M10.9 84.1C10.1667 84.1 9.1 84 7.7 83.8C6.3 83.6 5.03333 83.1667 3.9 82.5C2.7 81.8333 2.1 80.7667 2.1 79.3C2.1 78.5 2.3 77.8667 2.7 77.4C2.96667 77.0667 3.23333 76.9 3.5 76.9C3.76667 76.9 3.86667 77.0667 3.8 77.4C3.53333 78.4 3.9 79.3333 4.9 80.2C5.83333 81.1333 6.76667 81.7333 7.7 82C8.76667 82.2667 9.9 82.4 11.1 82.4C13.7 82.4 16.1 81.7333 18.3 80.4C20.5667 79.0667 22.5667 77.4 24.3 75.4C21.8333 73.6667 19.6333 71.5 17.7 68.9C15.8333 66.3 14.9 63.3667 14.9 60.1C14.9 59.1 15 58.1 15.2 57.1C15.9333 53.5 17.7667 50.7 20.7 48.7C22.2333 47.6333 23.9667 47.1 25.9 47.1C27.1667 47.1 28.3 47.3333 29.3 47.8C30.3667 48.2 31.1 48.7 31.5 49.3V49.4C31.5 49.6667 31.3667 49.9333 31.1 50.2C30.8333 50.4 30.6333 50.4333 30.5 50.3C30.0333 49.4333 29.1333 49 27.8 49C27.0667 49 26.2667 49.1667 25.4 49.5C24.5333 49.7667 23.7333 50.2667 23 51C22.1333 51.7333 21.4333 52.6667 20.9 53.8C20.3667 54.8667 19.9333 56 19.6 57.2C19.2 58.6 19 59.9667 19 61.3C19 63.9667 19.6333 66.3667 20.9 68.5C22.1667 70.6333 23.7333 72.4667 25.6 74C28 71 30.2333 67.6 32.3 63.8C34.4333 60 36.3667 56.3 38.1 52.7C39.9 49.0333 41.5 45.9667 42.9 43.5C48.1 34.3667 53.1 27.3 57.9 22.3C62.7667 17.2333 67.2667 14.7 71.4 14.7C72.2667 14.7 73.1 14.8 73.9 15C74.1667 15.0667 74.2333 15.2333 74.1 15.5C73.9667 15.7667 73.7667 15.8667 73.5 15.8C73.2333 15.7333 72.9667 15.7 72.7 15.7C72.5 15.6333 72.2667 15.6 72 15.6C70 15.6 67.8333 16.6 65.5 18.6C63.1667 20.5333 60.7667 23.2333 58.3 26.7C55.8333 30.1 53.3667 34.0333 50.9 38.5C51.7667 37.9667 52.7667 37.6 53.9 37.4C55.1 37.1333 56.3333 37 57.6 37C59.5333 37 61.4667 37.2 63.4 37.6C65.4 38 67.0667 38.4667 68.4 39C71.4 36.6667 73.8 33.7667 75.6 30.3C77.4667 26.8333 78.4 23.5 78.4 20.3C78.4 17.1 77.5667 14.5333 75.9 12.6C74.2333 10.6667 72.1333 9.19999 69.6 8.2C67.0667 7.2 64.4 6.53333 61.6 6.2C58.8 5.86666 56.2333 5.7 53.9 5.7C50.1667 5.7 46.4333 6.1 42.7 6.89999C39.0333 7.7 35.6333 8.86666 32.5 10.4C29.3667 11.8667 26.7 13.6667 24.5 15.8C22.7 17.5333 21 19.8333 19.4 22.7C17.8 25.5667 17 28.4667 17 31.4C17 32.6 17.2 33.7667 17.6 34.9C18.2667 36.7667 19.4667 38.2333 21.2 39.3C22.9333 40.3 24.9333 40.8 27.2 40.8C28.0667 40.8 28.9667 40.7 29.9 40.5C30.8333 40.3 31.7667 40.0667 32.7 39.8H32.9C33.1 39.8 33.2 39.9 33.2 40.1C33.2 40.3667 33.0333 40.5667 32.7 40.7C30.9 41.3 29.0333 41.6 27.1 41.6C24.8333 41.6 22.7 41.1667 20.7 40.3C18.7 39.3667 17.0667 38 15.8 36.2C14.5333 34.4 13.9 32.1667 13.9 29.5C13.9 27.4333 14.1667 25.5333 14.7 23.8C15.3 22.0667 16.1 20.4333 17.1 18.9C19.3 15.6333 22.4 12.9333 26.4 10.8C30.4 8.66666 34.8333 7.06666 39.7 5.99999C44.5667 4.93333 49.4 4.4 54.2 4.4C56.4667 4.4 59.0667 4.56666 62 4.9C65 5.23333 67.9667 5.86666 70.9 6.8C73.8333 7.66666 76.4 8.93333 78.6 10.6C80.8667 12.2667 82.4333 14.4 83.3 17C83.7 18.2667 83.9 19.6333 83.9 21.1C83.9 23.7667 83.2333 26.4667 81.9 29.2C80.5667 31.8667 78.9 34.2 76.9 36.2C75.3667 37.8667 73.5 39.3333 71.3 40.6C74.4333 42.1333 76.7667 44.2333 78.3 46.9C79.8333 49.5 80.6 52.3 80.6 55.3C80.6 58.4333 79.8 61.5667 78.2 64.7C76.6 67.8333 74.2333 70.6667 71.1 73.2C68.0333 75.7333 64.2 77.6667 59.6 79C57.4667 79.6 55.1667 80.0667 52.7 80.4C50.3 80.7333 47.8333 80.9 45.3 80.9C42.7 80.9 40.1 80.7 37.5 80.3C34.9 79.9 32.4 79.2667 30 78.4C29.6 78.2667 29.1667 78.1 28.7 77.9C28.2333 77.7 27.8 77.4667 27.4 77.2C23.8 80.4 19.9 82.5 15.7 83.5C14.1 83.9 12.5 84.1 10.9 84.1ZM55 44.4C57.1333 44.4 59.1667 44.0667 61.1 43.4C63.1 42.6667 64.9667 41.6667 66.7 40.4C65.4333 39.6 64 39.0667 62.4 38.8C60.8 38.4667 58.9667 38.3 56.9 38.3C54.9667 38.3 53.4333 38.7 52.3 39.5C51.1667 40.3 50.6 41.1333 50.6 42C50.6 42.6667 50.9333 43.2333 51.6 43.7C52.3333 44.1667 53.4667 44.4 55 44.4ZM59.1 77.1C62.5 75.6333 65.3333 73.7 67.6 71.3C69.9333 68.8333 71.7 66.1333 72.9 63.2C74.1 60.2667 74.7 57.4 74.7 54.6C74.7 52.0667 74.2 49.7 73.2 47.5C72.2667 45.3 70.8 43.4667 68.8 42C66.7333 43 64.4667 43.8333 62 44.5C59.6 45.1667 57.1333 45.5 54.6 45.5C52.7333 45.5 51.3333 45.2667 50.4 44.8C49.4667 44.2667 48.8333 43.7333 48.5 43.2C47.6333 44.8667 46.8 46.6 46 48.4C45.2 50.2 44.3667 52 43.5 53.8C41.7667 57.4 39.6667 61.2 37.2 65.2C34.8 69.2 31.9667 72.7667 28.7 75.9C29.1 76.1667 29.5 76.3667 29.9 76.5C30.3 76.7 30.7 76.8667 31.1 77C33.3 77.8 35.6333 78.4 38.1 78.8C40.5667 79.2 43.0333 79.4 45.5 79.4C48.1 79.4 50.5667 79.1667 52.9 78.7C55.3 78.3 57.3667 77.7667 59.1 77.1ZM80.9875 74.4C80.5875 74.8667 80.1875 75.1 79.7875 75.1C79.5208 75.1 79.3542 75 79.2875 74.8C79.2208 74.5333 79.2875 74.2667 79.4875 74C80.6208 72.7333 81.9875 71 83.5875 68.8C85.1875 66.6 86.7875 64.1667 88.3875 61.5C89.9875 58.8333 91.3875 56.1 92.5875 53.3C93.7875 50.4333 94.5208 47.7 94.7875 45.1C93.2542 44.2333 92.2208 42.7333 91.6875 40.6C91.6208 40.2667 91.5542 39.9667 91.4875 39.7C91.4875 39.3667 91.4875 39.0667 91.4875 38.8C91.4875 37.6 91.7208 36.6 92.1875 35.8C92.7208 34.9333 93.3208 34.5 93.9875 34.5C94.9208 34.5 95.6875 35.4 96.2875 37.2C96.4208 37.6667 96.5208 38.2 96.5875 38.8C96.6542 39.3333 96.6875 39.8667 96.6875 40.4C96.6875 41 96.6542 41.5667 96.5875 42.1C96.5875 42.5667 96.5542 42.9667 96.4875 43.3C96.9542 43.4333 97.5542 43.5333 98.2875 43.6C99.0875 43.6667 99.9542 43.7 100.888 43.7C102.288 43.7 103.754 43.6667 105.288 43.6C106.821 43.4667 108.121 43.4 109.188 43.4C110.454 43.4 111.321 43.6667 111.788 44.2C112.254 44.7333 112.488 45.4 112.488 46.2C112.488 47.2 112.221 48.3 111.688 49.5C111.221 50.6333 110.754 51.6 110.288 52.4C109.421 54 108.588 55.4333 107.788 56.7C107.054 57.9 106.221 59.2 105.288 60.6C103.888 62.7333 102.854 64.7 102.188 66.5C101.588 68.2333 101.288 69.7 101.288 70.9C101.288 72.9667 102.054 74 103.588 74C104.854 74 106.488 73.1 108.488 71.3C109.754 70.1667 110.921 68.8333 111.988 67.3C113.121 65.7 114.121 64.1 114.988 62.5C115.921 60.8333 116.688 59.4667 117.288 58.4C117.421 58.2 117.554 58.1 117.688 58.1C117.954 58.1 118.088 58.3667 118.088 58.9C118.088 59.3 117.988 59.6667 117.788 60C116.654 62.0667 115.354 64.3333 113.888 66.8C112.421 69.2667 110.621 71.4 108.488 73.2C107.354 74.1333 106.221 74.8 105.088 75.2C104.021 75.6667 103.021 75.9 102.088 75.9C100.421 75.9 99.0208 75.3333 97.8875 74.2C96.8208 73 96.2875 71.4333 96.2875 69.5C96.2875 68.3667 96.5542 67 97.0875 65.4C97.9542 63 99.2542 60.7 100.988 58.5C102.721 56.3 104.388 54.0667 105.988 51.8C106.988 50.4667 107.488 49.1667 107.488 47.9C107.488 47.2333 107.288 46.6667 106.888 46.2C106.554 45.7333 105.921 45.4667 104.988 45.4C104.454 45.2667 103.854 45.2 103.188 45.2C102.521 45.2 101.854 45.2 101.188 45.2H98.3875C97.9875 45.2 97.6208 45.2 97.2875 45.2C96.9542 45.2 96.6542 45.1667 96.3875 45.1C96.0542 47.6333 95.2542 50.3667 93.9875 53.3C92.7875 56.1667 91.3542 59 89.6875 61.8C88.0875 64.6 86.4875 67.1 84.8875 69.3C83.3542 71.5 82.0542 73.2 80.9875 74.4ZM119.466 75.6C117.599 75.6 116.232 75 115.366 73.8C114.499 72.5333 114.066 71 114.066 69.2C114.066 68.6667 114.099 68.1333 114.166 67.6C114.299 67 114.432 66.4 114.566 65.8C115.299 63.1333 116.432 60.1667 117.966 56.9C119.566 53.5667 121.099 50.6 122.566 48C123.432 46.5333 124.232 45.5 124.966 44.9C125.699 44.2333 126.499 43.7667 127.366 43.5C128.232 43.1667 129.266 42.8 130.466 42.4C130.799 42.2667 131.132 42.1667 131.466 42.1C131.799 42.0333 132.166 41.9667 132.566 41.9C131.232 43.2333 129.866 44.8333 128.466 46.7C127.132 48.5667 125.666 51.1333 124.066 54.4C123.199 56.1333 122.332 58.0667 121.466 60.2C120.666 62.3333 119.966 64.3333 119.366 66.2C118.766 68.0667 118.432 69.5333 118.366 70.6C118.299 71.8667 118.466 72.7667 118.866 73.3C119.266 73.8333 119.799 74.1 120.466 74.1C121.599 74.1 122.666 73.7 123.666 72.9C124.732 72.1 125.666 71.2667 126.466 70.4C127.932 68.7333 129.299 66.9 130.566 64.9C131.899 62.9 133.199 60.7667 134.466 58.5C134.666 58.2333 134.832 58.1 134.966 58.1C135.232 58.1 135.366 58.3 135.366 58.7C135.366 59.0333 135.299 59.3 135.166 59.5C133.966 61.7 132.699 63.9 131.366 66.1C130.032 68.3 128.399 70.3667 126.466 72.3C125.599 73.1667 124.566 73.9333 123.366 74.6C122.232 75.2667 120.932 75.6 119.466 75.6ZM131.666 36.3C130.932 36.3 130.299 36.0333 129.766 35.5C129.299 34.9667 129.066 34.3333 129.066 33.6C129.066 32.6667 129.432 31.8333 130.166 31.1C130.966 30.3667 131.832 29.9333 132.766 29.8C133.499 29.8 134.099 30.0667 134.566 30.6C135.099 31.0667 135.366 31.7 135.366 32.5C135.366 33.3667 134.999 34.2333 134.266 35.1C133.532 35.9 132.666 36.3 131.666 36.3ZM158.153 75.7C155.886 75.7 154.253 74.9333 153.253 73.4C152.253 71.8 151.753 69.8333 151.753 67.5C151.753 65.1667 152.153 62.8667 152.953 60.6L153.953 57.7L150.253 63.4C149.32 64.8667 148.086 66.5333 146.553 68.4C145.086 70.2 143.52 71.7667 141.853 73.1C139.72 74.8333 137.786 75.7 136.053 75.7C134.386 75.7 133.086 75 132.153 73.6C131.286 72.2 130.853 70.4333 130.853 68.3C130.853 66.8333 131.053 65.3667 131.453 63.9C132.453 60.1667 133.986 56.7667 136.053 53.7C138.12 50.5667 140.72 47.8667 143.853 45.6C145.186 44.6 146.886 43.8 148.953 43.2C151.02 42.5333 153.086 42.2 155.153 42.2C155.953 42.2 156.753 42.2667 157.553 42.4C158.353 42.5333 159.086 42.7 159.753 42.9C160.286 41.7 160.886 40.3667 161.553 38.9C162.286 37.4333 162.986 36 163.653 34.6C164.386 33.1333 164.986 31.9333 165.453 31C166.786 28.2667 168.453 25 170.453 21.2C172.453 17.4 174.786 13.8667 177.453 10.6C179.52 8 181.886 5.73333 184.553 3.8C187.286 1.8 189.92 0.799996 192.453 0.799996C193.986 0.799996 195.12 1.26666 195.853 2.2C196.653 3.13333 197.053 4.26666 197.053 5.6C197.053 6.8 196.82 7.9 196.353 8.9C195.286 11.3 193.586 13.8333 191.253 16.5C188.986 19.1667 186.52 21.7667 183.853 24.3C181.253 26.7667 178.92 29 176.853 31C175.12 32.6667 173.586 34.1333 172.253 35.4C170.92 36.6 169.686 37.8 168.553 39C167.42 40.2 166.186 41.5333 164.853 43C163.386 46.3333 162.02 49.6667 160.753 53C159.553 56.3333 158.553 59.4333 157.753 62.3C157.02 65.1667 156.653 67.5667 156.653 69.5C156.653 72.2333 157.486 73.7 159.153 73.9C160.286 73.9 161.353 73.5333 162.353 72.8C163.353 72.0667 164.22 71.2667 164.953 70.4C166.486 68.7333 167.886 66.9 169.153 64.9C170.42 62.9 171.686 60.7667 172.953 58.5C173.153 58.2333 173.353 58.1 173.553 58.1C173.82 58.1 173.953 58.3 173.953 58.7C173.953 59.0333 173.886 59.3 173.753 59.5C172.553 61.7 171.253 63.9 169.853 66.1C168.52 68.3 166.886 70.3667 164.953 72.3C164.086 73.1667 163.086 73.9667 161.953 74.7C160.82 75.3667 159.553 75.7 158.153 75.7ZM166.453 39.5C167.986 37.7667 169.42 36.2333 170.753 34.9C172.086 33.5 173.72 31.8 175.653 29.8C177.52 27.9333 179.653 25.7333 182.053 23.2C184.52 20.6667 186.82 18.1 188.953 15.5C191.153 12.9 192.753 10.6 193.753 8.6C194.553 7 194.953 5.7 194.953 4.7C194.953 3.03333 194.12 2.2 192.453 2.2C190.386 2.2 188.22 3.16666 185.953 5.09999C183.753 6.96666 181.586 9.53333 179.453 12.8C177.653 15.6 175.953 18.6667 174.353 22C172.753 25.2667 171.286 28.4333 169.953 31.5C168.62 34.5667 167.453 37.2333 166.453 39.5ZM138.153 72.6C139.353 72.6 140.786 71.8 142.453 70.2C144.186 68.5333 145.953 66.5 147.753 64.1C149.62 61.6333 151.32 59.2333 152.853 56.9C153.32 56.2333 153.92 55.1333 154.653 53.6C155.453 52.0667 156.286 50.4333 157.153 48.7C158.02 46.9 158.753 45.3333 159.353 44C158.953 43.8667 158.553 43.8 158.153 43.8C157.82 43.8 157.453 43.8 157.053 43.8C154.986 43.8 152.92 44.3667 150.853 45.5C148.853 46.5667 147.053 48 145.453 49.8C143.186 52.2667 141.286 54.9333 139.753 57.8C138.22 60.6 137.153 63.0667 136.553 65.2C136.22 66.4 136.053 67.6333 136.053 68.9C136.053 69.9 136.186 70.7667 136.453 71.5C136.786 72.2333 137.353 72.6 138.153 72.6ZM181.93 75.8C178.063 75.8 175.33 74.8 173.73 72.8C172.93 71.9333 172.363 70.9 172.03 69.7C171.696 68.5 171.53 67.2667 171.53 66C171.53 64.4 171.73 62.8 172.13 61.2C172.53 59.5333 173.03 58 173.63 56.6C174.563 54.4 175.796 52.2 177.33 50C178.863 47.7333 180.696 45.8333 182.83 44.3C185.03 42.7667 187.43 42 190.03 42C191.763 42 193.13 42.4333 194.13 43.3C195.13 44.1667 195.63 45.5 195.63 47.3C195.63 49.3667 194.996 51.4667 193.73 53.6C192.463 55.6667 190.863 57.4 188.93 58.8C186.996 60.2 184.996 60.9 182.93 60.9C181.063 60.9 179.43 60.2333 178.03 58.9C177.63 59.9667 177.296 61.1667 177.03 62.5C176.763 63.7667 176.63 65.0667 176.63 66.4C176.63 68.4667 177.03 70.2667 177.83 71.8C178.696 73.3333 180.23 74.1 182.43 74.1C184.03 74.1 185.563 73.7 187.03 72.9C188.563 72.0333 189.93 71 191.13 69.8C192.463 68.4 193.73 66.9 194.93 65.3C196.13 63.7 197.296 61.8333 198.43 59.7C198.563 59.5 198.663 59.4 198.73 59.4C198.996 59.4 199.13 59.7 199.13 60.3C199.13 60.7 198.996 61.1333 198.73 61.6C197.73 63.4 196.563 65.2333 195.23 67.1C193.896 68.9 192.53 70.4667 191.13 71.8C189.863 73 188.496 73.9667 187.03 74.7C185.563 75.4333 183.863 75.8 181.93 75.8ZM178.53 57.4C178.996 58.0667 179.53 58.5667 180.13 58.9C180.796 59.1667 181.463 59.3 182.13 59.3C183.73 59.3 185.396 58.7 187.13 57.5C188.863 56.2333 190.263 54.7667 191.33 53.1C191.796 52.3667 192.196 51.4 192.53 50.2C192.93 49 193.13 47.8667 193.13 46.8C193.13 45.8667 192.93 45.0667 192.53 44.4C192.196 43.6667 191.496 43.3 190.43 43.3C189.23 43.3 187.796 44.0333 186.13 45.5C184.53 46.9667 182.996 48.8667 181.53 51.2C181.063 52 180.53 52.9333 179.93 54C179.396 55.0667 178.93 56.2 178.53 57.4ZM201.202 75.8C199.802 75.8 198.502 75.5333 197.302 75C196.168 74.4 195.235 73.4 194.502 72C193.968 70.8 193.702 69.5 193.702 68.1C193.702 66.6333 193.968 65.2667 194.502 64C195.035 62.8667 195.635 61.8667 196.302 61C196.968 60.1333 197.702 59.6333 198.502 59.5C199.102 58.1667 200.002 56.4 201.202 54.2C202.468 52 203.868 49.8 205.402 47.6C207.002 45.4 208.502 43.6333 209.902 42.3C210.235 41.9667 210.802 41.4333 211.602 40.7C212.468 39.9 213.435 39.1333 214.502 38.4C215.635 37.6667 216.668 37.2333 217.602 37.1C217.802 37.0333 218.068 37 218.402 37C219.202 37 219.802 37.2 220.202 37.6C220.602 38 220.802 38.4667 220.802 39C220.802 39.5333 220.602 40.0667 220.202 40.6C219.802 41.1333 219.168 41.5667 218.302 41.9C217.968 41.9667 217.468 42.0667 216.802 42.2C216.202 42.3333 215.302 42.4 214.102 42.4C213.635 43.0667 213.402 44 213.402 45.2C213.402 46.5333 213.602 48.0333 214.002 49.7C214.468 51.3667 214.902 53 215.302 54.6C215.768 56.1333 216.002 57.4333 216.002 58.5C216.135 60.9667 215.735 63.4667 214.802 66C213.935 68.4667 212.535 70.5667 210.602 72.3L209.202 73.3C209.402 73.3667 209.602 73.4333 209.802 73.5C210.002 73.5 210.202 73.5 210.402 73.5C211.535 73.5 212.802 73.1667 214.202 72.5C215.602 71.7667 216.835 70.8667 217.902 69.8C219.502 68.2667 220.868 66.6333 222.002 64.9C223.202 63.1667 224.302 61.3667 225.302 59.5C225.368 59.2333 225.535 59.1 225.802 59.1C226.135 59.1 226.302 59.3667 226.302 59.9C226.302 60.1667 226.202 60.4667 226.002 60.8C225.002 62.6667 223.768 64.6333 222.302 66.7C220.902 68.7 219.435 70.4 217.902 71.8C216.702 72.8667 215.402 73.6667 214.002 74.2C212.668 74.6667 211.535 74.9 210.602 74.9C209.935 74.9 209.402 74.8333 209.002 74.7C208.602 74.5667 208.235 74.3667 207.902 74.1C206.968 74.5667 205.902 74.9667 204.702 75.3C203.568 75.6333 202.402 75.8 201.202 75.8ZM205.002 73.2C206.335 72.2667 207.368 71.0667 208.102 69.6C208.902 68.1333 209.502 66.5667 209.902 64.9C210.435 62.9 210.735 60.8333 210.802 58.7C210.935 56.5667 211.002 54.6333 211.002 52.9V49.4C211.002 48 211.168 46.5667 211.502 45.1C211.902 43.6333 212.302 42.7333 212.702 42.4C211.702 42.8 210.602 43.7 209.402 45.1C208.202 46.4333 207.002 48.0333 205.802 49.9C204.602 51.7 203.502 53.4667 202.502 55.2C201.568 56.9333 200.835 58.3667 200.302 59.5C201.568 59.4333 202.435 59.8 202.902 60.6C203.368 61.3333 203.502 61.8667 203.302 62.2C202.768 62.0667 202.402 62 202.202 62C201.202 62 200.268 62.3667 199.402 63.1C198.535 63.7667 197.802 64.7667 197.202 66.1C196.602 67.3667 196.302 68.6 196.302 69.8C196.302 71.4 196.768 72.5667 197.702 73.3C198.635 74.0333 199.735 74.4 201.002 74.4C202.468 74.4 203.802 74 205.002 73.2Z" fill="#272525"/>
</svg>
