<svg width="548" height="125" viewBox="0 0 548 125" fill="none" xmlns="http://www.w3.org/2000/svg">
<path d="M29.3 96C28.9667 96 28.7667 95.8667 28.7 95.6C28.6333 95.3333 28.7333 95.1 29 94.9C29.9333 94.1667 30.8333 93.4 31.7 92.6C32.6333 91.8 33.3667 90.9333 33.9 90L35 88.1C36.4667 85.5 37.5667 82.6333 38.3 79.5C39.0333 76.3 39.5667 72.9667 39.9 69.5C40.3 66.0333 40.6333 62.6333 40.9 59.3C41.1667 55.9 41.6 52.7 42.2 49.7C42.5333 47.9667 42.9333 46.3333 43.4 44.8C43.9333 43.2 44.5667 41.7333 45.3 40.4C46.0333 39.1333 47 37.7333 48.2 36.2C49.4 34.6667 50.7333 33.4 52.2 32.4C53.1333 31.7333 53.9667 31.2333 54.7 30.9C55.5 30.5667 56.1333 30.3333 56.6 30.2C54.7333 29.2 52.3333 28.3333 49.4 27.6C46.5333 26.8 43.6667 26.4 40.8 26.4C37.7333 26.4 34.6667 26.8333 31.6 27.7C28.6 28.5 25.7667 29.6333 23.1 31.1C20.3 32.6333 17.6667 34.7 15.2 37.3C12.7333 39.8333 10.7 42.6333 9.1 45.7C7.5 48.7667 6.56667 51.9 6.3 55.1C6.23333 56.7 6.43333 58.2 6.9 59.6C7.36667 60.9333 8.16667 61.9667 9.3 62.7C9.83333 63.0333 10.4667 63.3 11.2 63.5C12 63.6333 12.8 63.7 13.6 63.7C15.0667 63.7 16.4333 63.4667 17.7 63C17.9 62.9333 18.1333 62.9 18.4 62.9C18.7333 62.9 18.9 63 18.9 63.2C18.9 63.6 18.5333 63.9333 17.8 64.2C16.4667 64.8667 14.8333 65.2 12.9 65.2C10.9 65.2 9.1 64.8 7.5 64C5.7 63.0667 4.43333 61.7 3.7 59.9C3.03333 58.0333 2.7 56.1333 2.7 54.2C2.7 50.2667 3.66667 46.6 5.6 43.2C7.53333 39.8 10 36.8 13 34.2C16.0667 31.6 19.3 29.6 22.7 28.2C25.6333 26.9333 28.6333 26.0333 31.7 25.5C34.7667 24.9667 37.7667 24.7 40.7 24.7C43.5667 24.7 46.6 25.1333 49.8 26C53.0667 26.8 55.8333 28.0667 58.1 29.8C58.3667 30 58.5 30.2 58.5 30.4V30.5C58.5 30.9 58.2667 31.1 57.8 31.1C55.6 31.1 53.7667 31.8667 52.3 33.4C50.9 34.9333 49.7667 36.8333 48.9 39.1C48.1 41.3667 47.5 43.7 47.1 46.1C46.7667 48.4333 46.5667 50.4 46.5 52C46.4333 56.8 46.2667 61.4667 46 66C45.7333 70.5333 45 74.8 43.8 78.8C42.6667 82.8 40.6667 86.4333 37.8 89.7C37.7333 89.7667 37.7 89.8667 37.7 90C37.7 90.4667 38.0333 90.4667 38.7 90C40.7 88.2667 42.7333 86 44.8 83.2C46.8667 80.4 48.8333 77.5 50.7 74.5C52.6333 71.4333 54.3333 68.7 55.8 66.3C58.6 61.7 61.3 57.2 63.9 52.8C66.5667 48.3333 69.0333 44.4333 71.3 41.1C73.5667 37.7667 75.5333 35.5 77.2 34.3C80 32.3 82.1667 31.0333 83.7 30.5C85.3 29.9 86.8333 29.6667 88.3 29.8C88.7667 29.8 89 30 89 30.4C89 30.8667 88.7667 31.1 88.3 31.1C86.2333 31.1 84.5667 31.8 83.3 33.2C82.0333 34.6 80.8 36.3667 79.6 38.5C78.5333 40.4333 77.8333 42.7667 77.5 45.5C77.1667 48.1667 76.9667 51.1 76.9 54.3C76.8333 57.4333 76.7333 60.7 76.6 64.1C76.5333 67.4333 76.2 70.7667 75.6 74.1C75 77.4333 73.9333 80.6333 72.4 83.7C70.9333 86.7 68.8 89.4667 66 92C68.2667 91.2 70.6333 89.2333 73.1 86.1C75.6333 82.9667 78.2333 79.1 80.9 74.5C83.6333 69.9 86.4333 64.9667 89.3 59.7C92.2333 54.4333 95.2 49.2333 98.2 44.1C101.267 38.9 104.333 34.2 107.4 30C110.333 26.0667 113.433 23.4 116.7 22C120.033 20.5333 122.933 19.8 125.4 19.8C128.6 19.8 131.067 20.9333 132.8 23.2C132.933 23.3333 133 23.5 133 23.7C133 23.9 132.9 24.0333 132.7 24.1C132.567 24.1667 132.4 24.1 132.2 23.9C131.8 23.5667 131.333 23.3333 130.8 23.2C130.267 23.0667 129.667 23 129 23C128.133 23 127.2 23.1 126.2 23.3C122.733 24.0333 119.4 25.6333 116.2 28.1C113 30.5667 109.933 33.6333 107 37.3C104.133 40.9 101.333 44.8667 98.6 49.2C95.9333 53.4667 93.3 57.8333 90.7 62.3C88.1 66.7667 85.5333 71.0333 83 75.1C80.5333 79.1667 78.0333 82.8 75.5 86C72.9667 89.2 70.4 91.7 67.8 93.5C65.2 95.3 62.5333 96.1333 59.8 96C59.4667 96 59.2333 95.8667 59.1 95.6C59.0333 95.4 59.1667 95.1667 59.5 94.9C62.2333 93.0333 64.3667 90.4333 65.9 87.1C67.4333 83.7 68.5667 79.9667 69.3 75.9C70.0333 71.8333 70.5667 67.8 70.9 63.8C71.3 59.8 71.7333 56.2667 72.2 53.2C72.5333 50.7333 73.1333 48 74 45C74.9333 42 76.2333 39.2667 77.9 36.8C79.6333 34.2667 81.8333 32.5 84.5 31.5C82.9 31.8333 81.1667 32.8667 79.3 34.6C77.5 36.3333 75.6 38.5 73.6 41.1C71.6667 43.7 69.7333 46.5333 67.8 49.6C65.8667 52.6 64.0333 55.6 62.3 58.6C60.5667 61.6 59 64.3333 57.6 66.8C56.2667 69.2 55.1333 71.1333 54.2 72.6C52.0667 76.0667 49.8667 79.3667 47.6 82.5C45.4 85.6333 43.2 88.2667 41 90.4L39.4 91.7C37.7333 93.1 36.0667 94.2 34.4 95C32.7333 95.8 31.0333 96.1333 29.3 96ZM102.449 92.8C98.5826 92.8 95.8492 91.8 94.2492 89.8C93.4492 88.9333 92.8826 87.9 92.5492 86.7C92.2159 85.5 92.0492 84.2667 92.0492 83C92.0492 81.4 92.2492 79.8 92.6492 78.2C93.0492 76.5333 93.5492 75 94.1492 73.6C95.0826 71.4 96.3159 69.2 97.8492 67C99.3826 64.7333 101.216 62.8333 103.349 61.3C105.549 59.7667 107.949 59 110.549 59C112.283 59 113.649 59.4333 114.649 60.3C115.649 61.1667 116.149 62.5 116.149 64.3C116.149 66.3667 115.516 68.4667 114.249 70.6C112.983 72.6667 111.383 74.4 109.449 75.8C107.516 77.2 105.516 77.9 103.449 77.9C101.583 77.9 99.9492 77.2333 98.5492 75.9C98.1492 76.9667 97.8159 78.1667 97.5492 79.5C97.2826 80.7667 97.1492 82.0667 97.1492 83.4C97.1492 85.4667 97.5492 87.2667 98.3492 88.8C99.2159 90.3333 100.749 91.1 102.949 91.1C104.549 91.1 106.083 90.7 107.549 89.9C109.083 89.0333 110.449 88 111.649 86.8C112.983 85.4 114.249 83.9 115.449 82.3C116.649 80.7 117.816 78.8333 118.949 76.7C119.083 76.5 119.183 76.4 119.249 76.4C119.516 76.4 119.649 76.7 119.649 77.3C119.649 77.7 119.516 78.1333 119.249 78.6C118.249 80.4 117.083 82.2333 115.749 84.1C114.416 85.9 113.049 87.4667 111.649 88.8C110.383 90 109.016 90.9667 107.549 91.7C106.083 92.4333 104.383 92.8 102.449 92.8ZM99.0492 74.4C99.5159 75.0667 100.049 75.5667 100.649 75.9C101.316 76.1667 101.983 76.3 102.649 76.3C104.249 76.3 105.916 75.7 107.649 74.5C109.383 73.2333 110.783 71.7667 111.849 70.1C112.316 69.3667 112.716 68.4 113.049 67.2C113.449 66 113.649 64.8667 113.649 63.8C113.649 62.8667 113.449 62.0667 113.049 61.4C112.716 60.6667 112.016 60.3 110.949 60.3C109.749 60.3 108.316 61.0333 106.649 62.5C105.049 63.9667 103.516 65.8667 102.049 68.2C101.583 69 101.049 69.9333 100.449 71C99.9159 72.0667 99.4492 73.2 99.0492 74.4ZM143.321 92.7C141.054 92.7 139.421 91.9333 138.421 90.4C137.421 88.8 136.921 86.8333 136.921 84.5C136.921 82.1667 137.321 79.8667 138.121 77.6L139.121 74.7L135.421 80.4C134.488 81.8667 133.254 83.5333 131.721 85.4C130.254 87.2 128.688 88.7667 127.021 90.1C124.888 91.8333 122.954 92.7 121.221 92.7C119.554 92.7 118.254 92 117.321 90.6C116.454 89.2 116.021 87.4333 116.021 85.3C116.021 83.8333 116.221 82.3667 116.621 80.9C117.621 77.1667 119.154 73.7667 121.221 70.7C123.288 67.5667 125.888 64.8667 129.021 62.6C130.354 61.6 132.054 60.8 134.121 60.2C136.188 59.5333 138.254 59.2 140.321 59.2C141.121 59.2 141.921 59.2667 142.721 59.4C143.521 59.5333 144.254 59.7 144.921 59.9C145.454 58.7 146.054 57.3667 146.721 55.9C147.454 54.4333 148.154 53 148.821 51.6C149.554 50.1333 150.154 48.9333 150.621 48C151.954 45.2667 153.621 42 155.621 38.2C157.621 34.4 159.954 30.8667 162.621 27.6C164.688 25 167.054 22.7333 169.721 20.8C172.454 18.8 175.088 17.8 177.621 17.8C179.154 17.8 180.288 18.2667 181.021 19.2C181.821 20.1333 182.221 21.2667 182.221 22.6C182.221 23.8 181.988 24.9 181.521 25.9C180.454 28.3 178.754 30.8333 176.421 33.5C174.154 36.1667 171.688 38.7667 169.021 41.3C166.421 43.7667 164.088 46 162.021 48C160.288 49.6667 158.754 51.1333 157.421 52.4C156.088 53.6 154.854 54.8 153.721 56C152.588 57.2 151.354 58.5333 150.021 60C148.554 63.3333 147.188 66.6667 145.921 70C144.721 73.3333 143.721 76.4333 142.921 79.3C142.188 82.1667 141.821 84.5667 141.821 86.5C141.821 89.2333 142.654 90.7 144.321 90.9C145.454 90.9 146.521 90.5333 147.521 89.8C148.521 89.0667 149.388 88.2667 150.121 87.4C151.654 85.7333 153.054 83.9 154.321 81.9C155.588 79.9 156.854 77.7667 158.121 75.5C158.321 75.2333 158.521 75.1 158.721 75.1C158.988 75.1 159.121 75.3 159.121 75.7C159.121 76.0333 159.054 76.3 158.921 76.5C157.721 78.7 156.421 80.9 155.021 83.1C153.688 85.3 152.054 87.3667 150.121 89.3C149.254 90.1667 148.254 90.9667 147.121 91.7C145.988 92.3667 144.721 92.7 143.321 92.7ZM151.621 56.5C153.154 54.7667 154.588 53.2333 155.921 51.9C157.254 50.5 158.888 48.8 160.821 46.8C162.688 44.9333 164.821 42.7333 167.221 40.2C169.688 37.6667 171.988 35.1 174.121 32.5C176.321 29.9 177.921 27.6 178.921 25.6C179.721 24 180.121 22.7 180.121 21.7C180.121 20.0333 179.288 19.2 177.621 19.2C175.554 19.2 173.388 20.1667 171.121 22.1C168.921 23.9667 166.754 26.5333 164.621 29.8C162.821 32.6 161.121 35.6667 159.521 39C157.921 42.2667 156.454 45.4333 155.121 48.5C153.788 51.5667 152.621 54.2333 151.621 56.5ZM123.321 89.6C124.521 89.6 125.954 88.8 127.621 87.2C129.354 85.5333 131.121 83.5 132.921 81.1C134.788 78.6333 136.488 76.2333 138.021 73.9C138.488 73.2333 139.088 72.1333 139.821 70.6C140.621 69.0667 141.454 67.4333 142.321 65.7C143.188 63.9 143.921 62.3333 144.521 61C144.121 60.8667 143.721 60.8 143.321 60.8C142.988 60.8 142.621 60.8 142.221 60.8C140.154 60.8 138.088 61.3667 136.021 62.5C134.021 63.5667 132.221 65 130.621 66.8C128.354 69.2667 126.454 71.9333 124.921 74.8C123.388 77.6 122.321 80.0667 121.721 82.2C121.388 83.4 121.221 84.6333 121.221 85.9C121.221 86.9 121.354 87.7667 121.621 88.5C121.954 89.2333 122.521 89.6 123.321 89.6ZM181.798 92.7C179.531 92.7 177.898 91.9333 176.898 90.4C175.898 88.8 175.398 86.8333 175.398 84.5C175.398 82.1667 175.798 79.8667 176.598 77.6L177.598 74.7L173.898 80.4C172.964 81.8667 171.731 83.5333 170.198 85.4C168.731 87.2 167.164 88.7667 165.498 90.1C163.364 91.8333 161.431 92.7 159.698 92.7C158.031 92.7 156.731 92 155.798 90.6C154.931 89.2 154.498 87.4333 154.498 85.3C154.498 83.8333 154.698 82.3667 155.098 80.9C156.098 77.1667 157.631 73.7667 159.698 70.7C161.764 67.5667 164.364 64.8667 167.498 62.6C168.831 61.6 170.531 60.8 172.598 60.2C174.664 59.5333 176.731 59.2 178.798 59.2C179.598 59.2 180.398 59.2667 181.198 59.4C181.998 59.5333 182.731 59.7 183.398 59.9C183.931 58.7 184.531 57.3667 185.198 55.9C185.931 54.4333 186.631 53 187.298 51.6C188.031 50.1333 188.631 48.9333 189.098 48C190.431 45.2667 192.098 42 194.098 38.2C196.098 34.4 198.431 30.8667 201.098 27.6C203.164 25 205.531 22.7333 208.198 20.8C210.931 18.8 213.564 17.8 216.098 17.8C217.631 17.8 218.764 18.2667 219.498 19.2C220.298 20.1333 220.698 21.2667 220.698 22.6C220.698 23.8 220.464 24.9 219.998 25.9C218.931 28.3 217.231 30.8333 214.898 33.5C212.631 36.1667 210.164 38.7667 207.498 41.3C204.898 43.7667 202.564 46 200.498 48C198.764 49.6667 197.231 51.1333 195.898 52.4C194.564 53.6 193.331 54.8 192.198 56C191.064 57.2 189.831 58.5333 188.498 60C187.031 63.3333 185.664 66.6667 184.398 70C183.198 73.3333 182.198 76.4333 181.398 79.3C180.664 82.1667 180.298 84.5667 180.298 86.5C180.298 89.2333 181.131 90.7 182.798 90.9C183.931 90.9 184.998 90.5333 185.998 89.8C186.998 89.0667 187.864 88.2667 188.598 87.4C190.131 85.7333 191.531 83.9 192.798 81.9C194.064 79.9 195.331 77.7667 196.598 75.5C196.798 75.2333 196.998 75.1 197.198 75.1C197.464 75.1 197.598 75.3 197.598 75.7C197.598 76.0333 197.531 76.3 197.398 76.5C196.198 78.7 194.898 80.9 193.498 83.1C192.164 85.3 190.531 87.3667 188.598 89.3C187.731 90.1667 186.731 90.9667 185.598 91.7C184.464 92.3667 183.198 92.7 181.798 92.7ZM190.098 56.5C191.631 54.7667 193.064 53.2333 194.398 51.9C195.731 50.5 197.364 48.8 199.298 46.8C201.164 44.9333 203.298 42.7333 205.698 40.2C208.164 37.6667 210.464 35.1 212.598 32.5C214.798 29.9 216.398 27.6 217.398 25.6C218.198 24 218.598 22.7 218.598 21.7C218.598 20.0333 217.764 19.2 216.098 19.2C214.031 19.2 211.864 20.1667 209.598 22.1C207.398 23.9667 205.231 26.5333 203.098 29.8C201.298 32.6 199.598 35.6667 197.998 39C196.398 42.2667 194.931 45.4333 193.598 48.5C192.264 51.5667 191.098 54.2333 190.098 56.5ZM161.798 89.6C162.998 89.6 164.431 88.8 166.098 87.2C167.831 85.5333 169.598 83.5 171.398 81.1C173.264 78.6333 174.964 76.2333 176.498 73.9C176.964 73.2333 177.564 72.1333 178.298 70.6C179.098 69.0667 179.931 67.4333 180.798 65.7C181.664 63.9 182.398 62.3333 182.998 61C182.598 60.8667 182.198 60.8 181.798 60.8C181.464 60.8 181.098 60.8 180.698 60.8C178.631 60.8 176.564 61.3667 174.498 62.5C172.498 63.5667 170.698 65 169.098 66.8C166.831 69.2667 164.931 71.9333 163.398 74.8C161.864 77.6 160.798 80.0667 160.198 82.2C159.864 83.4 159.698 84.6333 159.698 85.9C159.698 86.9 159.831 87.7667 160.098 88.5C160.431 89.2333 160.998 89.6 161.798 89.6ZM215.474 54.8C214.608 54.8 213.908 54.5333 213.374 54C212.841 53.4667 212.574 52.8 212.574 52C212.574 50.8667 213.008 49.9 213.874 49.1C214.741 48.3 215.674 47.9 216.674 47.9C217.541 47.9 218.241 48.1667 218.774 48.7C219.308 49.1667 219.574 49.8 219.574 50.6C219.574 51.6667 219.141 52.6333 218.274 53.5C217.408 54.3667 216.474 54.8 215.474 54.8ZM205.574 92.5C204.308 92.5 203.174 92.1333 202.174 91.4C201.174 90.6 200.674 89.3 200.674 87.5C200.674 86.9667 200.708 86.4333 200.774 85.9C200.841 85.3667 200.974 84.7667 201.174 84.1C201.841 81.7667 202.808 79.2667 204.074 76.6C205.408 73.9333 206.741 71.0667 208.074 68C208.408 67.2 208.708 66.4 208.974 65.6C209.241 64.8 209.374 64.1 209.374 63.5C209.374 62.3 208.808 61.7 207.674 61.7C206.741 61.7 205.874 62.0667 205.074 62.8C204.341 63.5333 203.708 64.3667 203.174 65.3C202.641 66.2333 202.208 67.0333 201.874 67.7C200.674 70.1 199.608 72.1667 198.674 73.9C197.808 75.5667 196.841 77.3667 195.774 79.3C195.441 79.8333 195.208 80.1 195.074 80.1C194.808 80.1 194.674 79.8667 194.674 79.4C194.674 79.0667 194.774 78.7 194.974 78.3C195.841 76.7667 196.708 75.1667 197.574 73.5C198.441 71.7667 199.208 70.2 199.874 68.8C200.608 67.4 201.074 66.4667 201.274 66C202.141 64.2667 203.174 62.8 204.374 61.6C205.641 60.4 207.308 59.8 209.374 59.8C211.241 59.8 212.508 60.2 213.174 61C213.841 61.7333 214.174 62.6667 214.174 63.8C214.174 65 213.908 66.2 213.374 67.4C212.041 70.6 210.641 73.5667 209.174 76.3C207.774 79.0333 206.508 82.1 205.374 85.5C205.241 86.0333 205.108 86.5333 204.974 87C204.908 87.4667 204.874 87.9 204.874 88.3C204.874 89.9667 205.541 90.8 206.874 90.8C207.808 90.8 208.808 90.4667 209.874 89.8C210.941 89.0667 211.874 88.2667 212.674 87.4C214.208 85.7333 215.608 83.9 216.874 81.9C218.208 79.9 219.508 77.6667 220.774 75.2C220.841 74.9333 220.974 74.8 221.174 74.8C221.441 74.8 221.574 75.1 221.574 75.7C221.574 76.1 221.508 76.4 221.374 76.6C220.174 78.8 218.908 81 217.574 83.2C216.241 85.3333 214.608 87.3667 212.674 89.3C211.741 90.2333 210.674 91 209.474 91.6C208.341 92.2 207.041 92.5 205.574 92.5ZM238.495 92.6C236.562 92.6 235.029 92 233.895 90.8C232.829 89.6 232.295 88.1 232.295 86.3C232.295 85.4333 232.462 84.4333 232.795 83.3C233.729 80.3667 235.195 77.4667 237.195 74.6C239.262 71.6667 240.962 68.7667 242.295 65.9C242.762 64.9667 242.995 64.1333 242.995 63.4C242.995 62.6667 242.762 62.1333 242.295 61.8C241.895 61.4 241.395 61.2 240.795 61.2C239.929 61.2 238.829 61.5667 237.495 62.3C236.229 62.9667 234.762 64.2667 233.095 66.2C232.095 67.4 230.962 68.8667 229.695 70.6C228.429 72.3333 227.395 73.9 226.595 75.3C225.262 77.5667 224.062 79.8667 222.995 82.2C221.929 84.4667 220.995 86.5667 220.195 88.5C219.529 90.0333 218.729 91.0333 217.795 91.5C216.862 91.9 215.962 92.0667 215.095 92C214.229 91.9333 213.562 91.9333 213.095 92C214.962 88.3333 216.795 84.4667 218.595 80.4C220.395 76.3333 221.929 72.2667 223.195 68.2C223.795 66.3333 224.295 64.5333 224.695 62.8C225.095 61 225.262 59.8333 225.195 59.3V59.1C225.195 58.5667 225.462 58.4333 225.995 58.7C226.862 59.1667 227.462 59.8667 227.795 60.8C228.129 61.6667 228.295 62.6667 228.295 63.8C228.295 65.0667 228.129 66.4333 227.795 67.9C227.462 69.3 227.062 70.5667 226.595 71.7C227.462 70.5 228.395 69.3 229.395 68.1C230.395 66.8333 231.495 65.6333 232.695 64.5C234.095 63.1 235.595 61.9 237.195 60.9C238.795 59.8333 240.529 59.3 242.395 59.3C244.195 59.3 245.495 59.7 246.295 60.5C247.162 61.3 247.595 62.3667 247.595 63.7C247.595 65.1 247.195 66.7 246.395 68.5C245.529 70.5667 244.462 72.6333 243.195 74.7C241.995 76.7667 240.895 78.7667 239.895 80.7C239.695 81.1 239.362 81.7333 238.895 82.6C238.495 83.4 238.129 84.3 237.795 85.3C237.662 85.7667 237.529 86.2667 237.395 86.8C237.262 87.2667 237.195 87.7667 237.195 88.3C237.195 88.9667 237.329 89.6 237.595 90.2C237.929 90.7333 238.529 91 239.395 91C240.529 91 241.595 90.6333 242.595 89.9C243.662 89.1 244.562 88.2667 245.295 87.4C246.829 85.7333 248.229 83.9 249.495 81.9C250.829 79.8333 252.129 77.6667 253.395 75.4C253.595 75.1333 253.729 75 253.795 75C254.062 75 254.195 75.3 254.195 75.9C254.195 76.3 254.129 76.6 253.995 76.8C252.795 79 251.529 81.1667 250.195 83.3C248.862 85.3667 247.229 87.3667 245.295 89.3C244.429 90.1667 243.429 90.9333 242.295 91.6C241.162 92.2667 239.895 92.6 238.495 92.6ZM249.413 119.3C248.346 119.567 247.279 119.7 246.213 119.7C244.212 119.7 242.712 119.2 241.712 118.2C240.712 117.267 240.212 116.1 240.212 114.7C240.212 113.5 240.612 112.2 241.412 110.8C242.212 109.467 243.412 108.267 245.012 107.2C247.079 105.8 248.946 104.667 250.613 103.8C252.346 103 254.213 102.167 256.213 101.3C258.213 100.5 260.713 99.4 263.713 98C264.779 95.8667 265.813 93.4333 266.813 90.7C267.813 87.9667 268.779 85.2667 269.713 82.6C270.713 79.9333 271.646 77.6333 272.513 75.7C272.246 75.9667 271.713 76.6667 270.913 77.8C270.113 78.9333 269.513 79.8 269.113 80.4C268.113 81.7333 266.879 83.3667 265.413 85.3C263.946 87.1667 262.379 88.7667 260.713 90.1C258.579 91.8333 256.646 92.7 254.913 92.7C253.246 92.7 251.946 92 251.013 90.6C250.146 89.2 249.713 87.4333 249.713 85.3C249.713 83.8333 249.913 82.3667 250.313 80.9C252.379 73.2333 256.513 67.1333 262.713 62.6C263.979 61.6667 265.546 60.9333 267.413 60.4C269.279 59.8 271.146 59.5 273.013 59.5C275.613 59.5 277.879 60.0667 279.813 61.2L280.113 60.9C281.646 58.6333 283.179 56.7333 284.713 55.2C286.246 53.6667 288.079 52.6667 290.213 52.2C287.946 54.6667 285.779 57.8 283.713 61.6C281.646 65.3333 279.746 69.3 278.013 73.5C276.346 77.7 274.813 81.7 273.413 85.5C272.013 89.2333 270.813 92.3667 269.813 94.9C273.479 93.0333 276.779 90.5333 279.713 87.4C282.713 84.2 285.246 80.7333 287.313 77C287.779 76.0667 288.279 75.6 288.813 75.6C288.946 75.6 289.013 75.7 289.013 75.9C289.013 76.1667 288.879 76.5333 288.613 77C287.413 79.1333 286.113 81.2333 284.713 83.3C283.379 85.3 281.846 87.1667 280.113 88.9C278.646 90.5 276.979 91.9667 275.113 93.3C273.313 94.6333 271.313 95.8 269.113 96.8C267.513 100.533 265.813 103.967 264.013 107.1C262.213 110.233 260.146 112.867 257.812 115C255.479 117.133 252.679 118.567 249.413 119.3ZM257.013 89.6C258.346 89.6 259.746 88.9333 261.213 87.6C262.679 86.2 264.146 84.5333 265.613 82.6C267.079 80.6 268.379 78.7 269.513 76.9C270.713 75.0333 271.613 73.6 272.213 72.6C273.213 71.0667 274.279 69.4333 275.413 67.7C276.546 65.9667 277.846 64.0667 279.313 62C278.046 61.3333 276.679 61 275.213 61C273.279 61 271.346 61.5333 269.413 62.6C267.546 63.6667 265.846 65.0667 264.313 66.8C262.046 69.2667 260.146 71.9333 258.613 74.8C257.079 77.6 256.013 80.0667 255.413 82.2C255.079 83.4 254.913 84.6333 254.913 85.9C254.913 86.9 255.046 87.7667 255.313 88.5C255.646 89.2333 256.213 89.6 257.013 89.6ZM248.813 117.2C251.146 116.467 253.179 115.167 254.913 113.3C256.646 111.5 258.146 109.4 259.413 107C260.746 104.667 261.879 102.3 262.813 99.9C260.746 100.967 258.079 102.1 254.813 103.3C251.613 104.567 248.579 106.3 245.713 108.5C244.446 109.5 243.512 110.533 242.912 111.6C242.246 112.667 241.912 113.667 241.912 114.6C241.912 115.467 242.212 116.2 242.812 116.8C243.412 117.4 244.346 117.7 245.613 117.7C246.079 117.7 246.579 117.667 247.113 117.6C247.646 117.533 248.213 117.4 248.813 117.2ZM303.273 100.8C302.473 100.4 301.839 99.8333 301.373 99.1C300.973 98.3667 300.773 97.6333 300.773 96.9C300.773 96.1667 300.973 95.5667 301.373 95.1C301.573 94.8333 301.806 94.6667 302.073 94.6C302.406 94.6 302.506 94.7667 302.373 95.1C302.173 96.1 302.639 97.0333 303.773 97.9C304.906 98.7667 305.939 99.3333 306.873 99.6C307.873 99.8 308.873 99.9 309.873 99.9C311.939 99.9 313.773 99.6 315.373 99C317.773 98.2 320.139 96.5333 322.473 94C324.873 91.5333 327.106 88.7667 329.173 85.7C330.906 83.0333 332.606 80.0667 334.273 76.8C335.939 73.5333 337.606 70.1667 339.273 66.7C337.939 66.5667 336.306 66.4333 334.373 66.3C332.439 66.1667 330.439 66.1 328.373 66.1C325.706 66.1 323.139 66.3333 320.673 66.8C318.206 67.2 316.439 68.0667 315.373 69.4C314.839 70.1333 314.573 70.9333 314.573 71.8C314.573 72 314.573 72.2 314.573 72.4C314.639 72.6 314.706 72.8 314.773 73C314.773 73.0667 314.773 73.1333 314.773 73.2C314.839 73.2 314.873 73.2333 314.873 73.3C314.873 73.4333 314.773 73.5 314.573 73.5C314.239 73.5 314.039 73.3333 313.973 73C313.906 72.8 313.839 72.5333 313.773 72.2C313.706 71.8667 313.673 71.5333 313.673 71.2C313.673 70.2667 313.873 69.3667 314.273 68.5C315.339 66.3667 317.006 64.9 319.273 64.1C321.539 63.3 324.006 62.9 326.673 62.9C329.139 62.9 331.606 63.1 334.073 63.5C336.539 63.9 338.606 64.2667 340.273 64.6C342.473 60.3333 344.739 56.1333 347.073 52C349.473 47.8667 352.073 44.1667 354.873 40.9C357.673 37.6333 360.773 35.1333 364.173 33.4C360.906 33 357.539 32.4667 354.073 31.8C350.673 31.0667 347.806 30.5 345.473 30.1C344.006 29.8333 342.339 29.6667 340.473 29.6C338.606 29.4667 336.639 29.4 334.573 29.4C330.906 29.4 327.239 29.6333 323.573 30.1C319.906 30.5 316.973 31.2 314.773 32.2C310.906 33.9333 307.573 36.3333 304.773 39.4C301.973 42.4 300.573 46.1667 300.573 50.7C300.573 52.5667 300.873 54.1667 301.473 55.5C302.139 56.7667 302.973 57.7333 303.973 58.4C305.106 59.0667 306.273 59.4 307.473 59.4C308.939 59.4 310.439 58.9667 311.973 58.1C313.506 57.1667 314.839 55.8333 315.973 54.1C316.506 53.2333 317.006 51.9667 317.473 50.3C318.006 48.6333 318.273 46.9333 318.273 45.2C318.273 44.2667 318.173 43.3667 317.973 42.5C317.839 41.6333 317.539 40.8667 317.073 40.2C316.939 39.9333 316.873 39.8 316.873 39.8C316.873 39.6 316.973 39.5 317.173 39.5C317.439 39.5 317.673 39.6667 317.873 40C318.206 40.4667 318.539 41.2 318.873 42.2C319.273 43.1333 319.539 44 319.673 44.8C319.739 45.2 319.773 45.6 319.773 46C319.839 46.4 319.873 46.8 319.873 47.2C319.873 48.5333 319.706 49.9 319.373 51.3C319.039 52.6333 318.506 53.8667 317.773 55C316.706 56.8 315.273 58.1667 313.473 59.1C311.673 59.9667 309.806 60.4 307.873 60.4C306.339 60.4 304.873 60.1 303.473 59.5C301.406 58.5 299.873 57.0667 298.873 55.2C297.939 53.3333 297.473 51.3 297.473 49.1C297.473 47.6333 297.639 46.1667 297.973 44.7C298.373 43.1667 298.906 41.7 299.573 40.3C300.706 37.8333 302.273 35.6667 304.273 33.8C306.273 31.9333 308.273 30.4667 310.273 29.4C313.606 27.6 316.939 26.3333 320.273 25.6C323.673 24.8667 327.106 24.5 330.573 24.5C333.439 24.5 336.339 24.7 339.273 25.1C342.206 25.5 345.173 26.0667 348.173 26.8C351.573 27.6 355.073 28.5 358.673 29.5C360.006 29.9 361.606 30.3333 363.473 30.8C365.339 31.2667 367.206 31.6 369.073 31.8C369.339 31.8 369.573 31.8 369.773 31.8C369.973 31.7333 370.206 31.7 370.473 31.7C371.139 31.7 371.873 31.8 372.673 32C373.939 31.9333 375.173 31.7 376.373 31.3C377.573 30.9 378.539 30.1667 379.273 29.1C379.539 28.7 379.673 28.3333 379.673 28C379.673 27.6667 379.639 27.3667 379.573 27.1C379.506 26.7667 379.573 26.5 379.773 26.3C379.906 26.1667 380.073 26.1 380.273 26.1C380.606 26.1 380.873 26.3 381.073 26.7C381.139 26.9 381.173 27.2333 381.173 27.7C381.173 27.9 381.173 28.1333 381.173 28.4C381.173 28.6 381.106 28.8 380.973 29C380.506 30.3333 379.606 31.4 378.273 32.2C376.939 32.9333 375.606 33.4 374.273 33.6C373.739 33.6667 373.139 33.7333 372.473 33.8C371.873 33.8 371.239 33.8 370.573 33.8C370.039 33.8 369.473 33.8 368.873 33.8C368.273 33.8 367.673 33.7667 367.073 33.7C364.873 34.7 362.573 36.6 360.173 39.4C356.906 43.2667 354.106 47.4667 351.773 52C349.506 56.4667 347.373 61 345.373 65.6C346.306 65.7333 347.239 65.8667 348.173 66C349.106 66.0667 350.006 66.1 350.873 66.1C352.673 66.1 354.273 65.8667 355.673 65.4C355.806 64.9333 356.039 64.3 356.373 63.5C356.773 62.6333 357.139 62 357.473 61.6C358.539 60.1333 359.606 59.4 360.673 59.4C361.539 59.4 361.973 59.8333 361.973 60.7C361.973 61.2333 361.673 61.9667 361.073 62.9C360.606 63.5 360.039 64.0667 359.373 64.6C358.773 65.1333 358.139 65.5333 357.473 65.8C357.006 66.7333 356.673 67.7333 356.473 68.8C356.273 69.8667 356.173 70.8667 356.173 71.8C356.173 73.2667 356.406 74.4333 356.873 75.3C356.939 75.3667 356.973 75.5 356.973 75.7C356.973 75.9 356.839 76.0333 356.573 76.1C356.373 76.1667 356.173 76.1 355.973 75.9C355.106 74.8333 354.673 73.2667 354.673 71.2C354.673 69.5333 354.973 67.9 355.573 66.3C354.106 66.9 352.039 67.2 349.373 67.2C348.639 67.2 347.873 67.2 347.073 67.2C346.339 67.1333 345.539 67.0667 344.673 67C343.206 70.2667 341.639 73.5333 339.973 76.8C338.373 80.0667 336.506 83.1667 334.373 86.1C332.039 89.3667 329.406 92.3 326.473 94.9C323.539 97.5 320.206 99.4667 316.473 100.8C314.406 101.533 311.939 101.9 309.073 101.9C307.939 101.9 306.873 101.8 305.873 101.6C304.873 101.467 304.006 101.2 303.273 100.8ZM382.997 92.7C380.864 92.7 379.397 92.0333 378.597 90.7C377.797 89.3 377.397 87.7667 377.397 86.1C377.397 85.7667 377.43 85.2 377.497 84.4C377.63 83.5333 377.764 82.7333 377.897 82C376.964 83.2667 375.83 84.6667 374.497 86.2C373.23 87.7333 371.93 89.0333 370.597 90.1C368.464 91.8333 366.53 92.7 364.797 92.7C363.13 92.7 361.83 92 360.897 90.6C360.03 89.2 359.597 87.4333 359.597 85.3C359.597 82.5667 360.197 79.8 361.397 77C362.597 74.2 364.164 71.5667 366.097 69.1C368.097 66.5667 370.297 64.4 372.697 62.6C374.097 61.6 375.797 60.8 377.797 60.2C379.864 59.5333 381.93 59.2 383.997 59.2C386.33 59.2 388.364 59.5667 390.097 60.3C391.897 60.9667 393.13 61.9333 393.797 63.2C392.397 65 390.964 67.2333 389.497 69.9C388.03 72.5 386.764 74.8667 385.697 77C384.964 78.4667 384.164 80.3 383.297 82.5C382.43 84.6333 381.997 86.4667 381.997 88C381.997 88.6667 382.164 89.3333 382.497 90C382.83 90.6667 383.464 91 384.397 91C385.464 91 386.497 90.6 387.497 89.8C388.497 89 389.33 88.2 389.997 87.4C391.53 85.7333 392.93 83.9 394.197 81.9C395.464 79.9 396.73 77.7667 397.997 75.5C398.197 75.2333 398.397 75.1 398.597 75.1C398.864 75.1 398.997 75.3 398.997 75.7C398.997 76.0333 398.93 76.3 398.797 76.5C397.664 78.7 396.397 80.9 394.997 83.1C393.597 85.3 391.93 87.3667 389.997 89.3C389.064 90.2333 387.964 91.0333 386.697 91.7C385.43 92.3667 384.197 92.7 382.997 92.7ZM366.997 89.6C368.264 89.6 369.63 88.9333 371.097 87.6C372.63 86.2 374.097 84.5333 375.497 82.6C376.964 80.6 378.264 78.7 379.397 76.9C380.597 75.0333 381.53 73.6 382.197 72.6C383.597 70.4 384.897 68.5667 386.097 67.1C387.297 65.6333 389.164 64.5 391.697 63.7C391.83 63.7 391.93 63.7 391.997 63.7C392.13 63.6333 392.264 63.6 392.397 63.6C391.797 62.6667 390.797 61.9667 389.397 61.5C387.997 61.0333 386.63 60.8 385.297 60.8C383.23 60.8 381.23 61.3667 379.297 62.5C377.364 63.6333 375.597 65.0667 373.997 66.8C372.464 68.6 370.964 70.5667 369.497 72.7C368.03 74.8333 366.83 77 365.897 79.2C365.03 81.4 364.597 83.5 364.597 85.5C364.597 86.5667 364.764 87.5333 365.097 88.4C365.497 89.2 366.13 89.6 366.997 89.6ZM400.139 92.8C398.739 92.8 397.439 92.5333 396.239 92C395.106 91.4 394.172 90.4 393.439 89C392.906 87.8 392.639 86.5 392.639 85.1C392.639 83.6333 392.906 82.2667 393.439 81C393.972 79.8667 394.572 78.8667 395.239 78C395.906 77.1333 396.639 76.6333 397.439 76.5C398.039 75.1667 398.939 73.4 400.139 71.2C401.406 69 402.806 66.8 404.339 64.6C405.939 62.4 407.439 60.6333 408.839 59.3C409.172 58.9667 409.739 58.4333 410.539 57.7C411.406 56.9 412.372 56.1333 413.439 55.4C414.572 54.6667 415.606 54.2333 416.539 54.1C416.739 54.0333 417.006 54 417.339 54C418.139 54 418.739 54.2 419.139 54.6C419.539 55 419.739 55.4667 419.739 56C419.739 56.5333 419.539 57.0667 419.139 57.6C418.739 58.1333 418.106 58.5667 417.239 58.9C416.906 58.9667 416.406 59.0667 415.739 59.2C415.139 59.3333 414.239 59.4 413.039 59.4C412.572 60.0667 412.339 61 412.339 62.2C412.339 63.5333 412.539 65.0333 412.939 66.7C413.406 68.3667 413.839 70 414.239 71.6C414.706 73.1333 414.939 74.4333 414.939 75.5C415.072 77.9667 414.672 80.4667 413.739 83C412.872 85.4667 411.472 87.5667 409.539 89.3L408.139 90.3C408.339 90.3667 408.539 90.4333 408.739 90.5C408.939 90.5 409.139 90.5 409.339 90.5C410.472 90.5 411.739 90.1667 413.139 89.5C414.539 88.7667 415.772 87.8667 416.839 86.8C418.439 85.2667 419.806 83.6333 420.939 81.9C422.139 80.1667 423.239 78.3667 424.239 76.5C424.306 76.2333 424.472 76.1 424.739 76.1C425.072 76.1 425.239 76.3667 425.239 76.9C425.239 77.1667 425.139 77.4667 424.939 77.8C423.939 79.6667 422.706 81.6333 421.239 83.7C419.839 85.7 418.372 87.4 416.839 88.8C415.639 89.8667 414.339 90.6667 412.939 91.2C411.606 91.6667 410.472 91.9 409.539 91.9C408.872 91.9 408.339 91.8333 407.939 91.7C407.539 91.5667 407.172 91.3667 406.839 91.1C405.906 91.5667 404.839 91.9667 403.639 92.3C402.506 92.6333 401.339 92.8 400.139 92.8ZM403.939 90.2C405.272 89.2667 406.306 88.0667 407.039 86.6C407.839 85.1333 408.439 83.5667 408.839 81.9C409.372 79.9 409.672 77.8333 409.739 75.7C409.872 73.5667 409.939 71.6333 409.939 69.9V66.4C409.939 65 410.106 63.5667 410.439 62.1C410.839 60.6333 411.239 59.7333 411.639 59.4C410.639 59.8 409.539 60.7 408.339 62.1C407.139 63.4333 405.939 65.0333 404.739 66.9C403.539 68.7 402.439 70.4667 401.439 72.2C400.506 73.9333 399.772 75.3667 399.239 76.5C400.506 76.4333 401.372 76.8 401.839 77.6C402.306 78.3333 402.439 78.8667 402.239 79.2C401.706 79.0667 401.339 79 401.139 79C400.139 79 399.206 79.3667 398.339 80.1C397.472 80.7667 396.739 81.7667 396.139 83.1C395.539 84.3667 395.239 85.6 395.239 86.8C395.239 88.4 395.706 89.5667 396.639 90.3C397.572 91.0333 398.672 91.4 399.939 91.4C401.406 91.4 402.739 91 403.939 90.2ZM443.097 92.7C440.83 92.7 439.23 92.0333 438.297 90.7C437.43 89.3667 436.997 87.9333 436.997 86.4C436.997 85.7333 437.064 85.1 437.197 84.5C437.33 83.8333 437.497 83.2 437.697 82.6C438.83 79.6667 440.397 76.8667 442.397 74.2C444.397 71.5333 446.064 68.7667 447.397 65.9C447.864 65.0333 448.097 64.2333 448.097 63.5C448.097 62.7 447.864 62.1 447.397 61.7C446.93 61.3 446.43 61.1 445.897 61.1C444.63 61.1 443.23 61.6667 441.697 62.8C440.23 63.8667 438.797 65.2333 437.397 66.9C436.13 68.3667 434.83 70.0667 433.497 72C432.164 73.8667 430.897 75.8667 429.697 78C428.564 79.9333 427.397 81.9667 426.197 84.1C424.997 86.1667 424.03 87.9333 423.297 89.4C422.764 90.5333 422.197 91.2667 421.597 91.6C420.997 91.9333 420.43 92.1 419.897 92.1C419.63 92.1 419.364 92.0667 419.097 92C418.83 92 418.597 92 418.397 92C418.997 89.7333 420.097 86.6333 421.697 82.7C423.364 78.7 425.33 73.9667 427.597 68.5C428.864 65.5667 430.364 62.2 432.097 58.4C433.83 54.5333 435.797 50.6 437.997 46.6C440.197 42.5333 442.63 38.7 445.297 35.1C447.964 31.4333 450.83 28.2333 453.897 25.5C457.03 22.7667 460.33 20.8667 463.797 19.8C464.197 19.7333 464.597 19.6667 464.997 19.6C465.397 19.5333 465.797 19.5 466.197 19.5C467.197 19.5 468.064 19.7333 468.797 20.2C469.73 20.8 470.197 21.8667 470.197 23.4C470.197 24.4667 469.897 25.7667 469.297 27.3C468.23 29.9667 466.464 32.8333 463.997 35.9C461.597 38.9667 458.764 42.1 455.497 45.3C451.43 49.2333 447.53 52.7 443.797 55.7C440.064 58.7 437.064 61.0667 434.797 62.8C433.464 65.6667 432.364 68.1667 431.497 70.3C430.63 72.3667 430.064 73.8667 429.797 74.8C430.864 73.2 432.064 71.4667 433.397 69.6C434.797 67.6667 436.03 66.1667 437.097 65.1C438.63 63.5667 440.164 62.2667 441.697 61.2C443.23 60.1333 444.73 59.5333 446.197 59.4C448.464 59.2 450.097 59.5 451.097 60.3C452.097 61.0333 452.597 62.1333 452.597 63.6C452.597 65.0667 452.197 66.7 451.397 68.5C450.53 70.5667 449.497 72.6333 448.297 74.7C447.097 76.7667 445.997 78.7667 444.997 80.7C444.73 81.2333 444.23 82.2667 443.497 83.8C442.83 85.2667 442.397 86.6667 442.197 88C442.197 88.0667 442.164 88.1667 442.097 88.3C442.097 88.4333 442.097 88.5667 442.097 88.7C442.097 89.4333 442.297 90 442.697 90.4C443.097 90.7333 443.564 90.9 444.097 90.9C445.23 90.9 446.297 90.5333 447.297 89.8C448.297 89.0667 449.164 88.2667 449.897 87.4C451.43 85.7333 452.83 83.9 454.097 81.9C455.364 79.9 456.63 77.7667 457.897 75.5C458.097 75.2333 458.297 75.1 458.497 75.1C458.764 75.1 458.897 75.3 458.897 75.7C458.897 76.0333 458.83 76.3 458.697 76.5C457.497 78.7 456.197 80.9 454.797 83.1C453.464 85.3 451.83 87.3667 449.897 89.3C449.03 90.1667 448.03 90.9667 446.897 91.7C445.764 92.3667 444.497 92.7 443.097 92.7ZM435.697 60.8C439.697 57.8667 443.297 54.9 446.497 51.9C449.697 48.9 452.93 45.6667 456.197 42.2C457.13 41.2 458.33 39.8667 459.797 38.2C461.33 36.5333 462.83 34.7333 464.297 32.8C465.764 30.8667 466.864 29 467.597 27.2C468.264 25.6667 468.597 24.3667 468.597 23.3C468.597 21.5 467.764 20.6 466.097 20.6C465.23 20.6 464.264 20.8667 463.197 21.4C462.13 21.9333 461.13 22.6667 460.197 23.6C456.997 26.6 453.864 30.2667 450.797 34.6C447.797 38.8667 444.997 43.3 442.397 47.9C439.864 52.5 437.63 56.8 435.697 60.8ZM460.102 92.6C458.236 92.6 456.869 92 456.002 90.8C455.136 89.5333 454.702 88 454.702 86.2C454.702 85.6667 454.736 85.1333 454.802 84.6C454.936 84 455.069 83.4 455.202 82.8C455.936 80.1333 457.069 77.1667 458.602 73.9C460.202 70.5667 461.736 67.6 463.202 65C464.069 63.5333 464.869 62.5 465.602 61.9C466.336 61.2333 467.136 60.7667 468.002 60.5C468.869 60.1667 469.902 59.8 471.102 59.4C471.436 59.2667 471.769 59.1667 472.102 59.1C472.436 59.0333 472.802 58.9667 473.202 58.9C471.869 60.2333 470.502 61.8333 469.102 63.7C467.769 65.5667 466.302 68.1333 464.702 71.4C463.836 73.1333 462.969 75.0667 462.102 77.2C461.302 79.3333 460.602 81.3333 460.002 83.2C459.402 85.0667 459.069 86.5333 459.002 87.6C458.936 88.8667 459.102 89.7667 459.502 90.3C459.902 90.8333 460.436 91.1 461.102 91.1C462.236 91.1 463.302 90.7 464.302 89.9C465.369 89.1 466.302 88.2667 467.102 87.4C468.569 85.7333 469.936 83.9 471.202 81.9C472.536 79.9 473.836 77.7667 475.102 75.5C475.302 75.2333 475.469 75.1 475.602 75.1C475.869 75.1 476.002 75.3 476.002 75.7C476.002 76.0333 475.936 76.3 475.802 76.5C474.602 78.7 473.336 80.9 472.002 83.1C470.669 85.3 469.036 87.3667 467.102 89.3C466.236 90.1667 465.202 90.9333 464.002 91.6C462.869 92.2667 461.569 92.6 460.102 92.6ZM472.302 53.3C471.569 53.3 470.936 53.0333 470.402 52.5C469.936 51.9667 469.702 51.3333 469.702 50.6C469.702 49.6667 470.069 48.8333 470.802 48.1C471.602 47.3667 472.469 46.9333 473.402 46.8C474.136 46.8 474.736 47.0667 475.202 47.6C475.736 48.0667 476.002 48.7 476.002 49.5C476.002 50.3667 475.636 51.2333 474.902 52.1C474.169 52.9 473.302 53.3 472.302 53.3ZM482.59 94C480.057 94 477.857 93.2 475.99 91.6C474.19 89.9333 473.29 87.4 473.29 84C473.29 81.8667 473.657 79.6667 474.39 77.4C475.19 75.0667 476.057 73 476.99 71.2C478.723 67.9333 480.89 65.1 483.49 62.7C486.157 60.2333 489.323 59 492.99 59C496.523 59 498.99 59.9667 500.39 61.9C501.79 63.8333 502.49 66.2 502.49 69C502.49 70.1333 502.39 71.3 502.19 72.5C501.657 75.7667 500.557 78.9333 498.89 82C499.357 82.6667 499.957 83.2333 500.69 83.7C501.49 84.1 502.357 84.3 503.29 84.3C504.89 84.3 506.257 83.8667 507.39 83C508.523 82.1333 509.49 81.0667 510.29 79.8C511.157 78.4667 511.89 77.2333 512.49 76.1C512.89 75.3667 513.257 75 513.59 75C513.79 75 513.89 75.1333 513.89 75.4C513.89 75.6667 513.69 76.2667 513.29 77.2C512.157 79.4667 510.823 81.4333 509.29 83.1C507.757 84.7667 505.757 85.6 503.29 85.6C501.023 85.6 499.29 84.8 498.09 83.2C496.223 86.2667 493.957 88.8333 491.29 90.9C488.623 92.9667 485.723 94 482.59 94ZM482.79 92.8C486.057 92.8 489.29 91.2 492.49 88C493.423 87.0667 494.257 86.1 494.99 85.1C495.79 84.0333 496.49 82.9667 497.09 81.9C496.223 80.9 495.59 79.8333 495.19 78.7C494.857 77.5 494.69 76.3667 494.69 75.3C494.69 73.6333 494.99 72.1667 495.59 70.9C496.19 69.5667 497.023 68.9 498.09 68.9C498.623 68.9 499.123 69.1667 499.59 69.7C500.123 70.2333 500.457 71.0667 500.59 72.2C500.79 71.2667 500.89 70.2667 500.89 69.2C500.89 66.6667 500.423 64.6667 499.49 63.2C498.557 61.6667 496.99 60.9 494.79 60.9C493.457 60.9 492.09 61.4333 490.69 62.5C489.29 63.5 487.957 64.7333 486.69 66.2C485.49 67.6667 484.423 69.1667 483.49 70.7C482.557 72.2333 481.857 73.5 481.39 74.5C480.257 76.9667 479.423 79.1667 478.89 81.1C478.423 83.0333 478.19 84.7333 478.19 86.2C478.19 88.3333 478.623 89.9667 479.49 91.1C480.423 92.2333 481.523 92.8 482.79 92.8ZM530.683 92.6C528.749 92.6 527.216 92 526.083 90.8C525.016 89.6 524.483 88.1 524.483 86.3C524.483 85.4333 524.649 84.4333 524.983 83.3C525.916 80.3667 527.383 77.4667 529.383 74.6C531.449 71.6667 533.149 68.7667 534.483 65.9C534.949 64.9667 535.183 64.1333 535.183 63.4C535.183 62.6667 534.949 62.1333 534.483 61.8C534.083 61.4 533.583 61.2 532.983 61.2C532.116 61.2 531.016 61.5667 529.683 62.3C528.416 62.9667 526.949 64.2667 525.283 66.2C524.283 67.4 523.149 68.8667 521.883 70.6C520.616 72.3333 519.583 73.9 518.783 75.3C517.449 77.5667 516.249 79.8667 515.183 82.2C514.116 84.4667 513.183 86.5667 512.383 88.5C511.716 90.0333 510.916 91.0333 509.983 91.5C509.049 91.9 508.149 92.0667 507.283 92C506.416 91.9333 505.749 91.9333 505.283 92C507.149 88.3333 508.983 84.4667 510.783 80.4C512.583 76.3333 514.116 72.2667 515.383 68.2C515.983 66.3333 516.483 64.5333 516.883 62.8C517.283 61 517.449 59.8333 517.383 59.3V59.1C517.383 58.5667 517.649 58.4333 518.183 58.7C519.049 59.1667 519.649 59.8667 519.983 60.8C520.316 61.6667 520.483 62.6667 520.483 63.8C520.483 65.0667 520.316 66.4333 519.983 67.9C519.649 69.3 519.249 70.5667 518.783 71.7C519.649 70.5 520.583 69.3 521.583 68.1C522.583 66.8333 523.683 65.6333 524.883 64.5C526.283 63.1 527.783 61.9 529.383 60.9C530.983 59.8333 532.716 59.3 534.583 59.3C536.383 59.3 537.683 59.7 538.483 60.5C539.349 61.3 539.783 62.3667 539.783 63.7C539.783 65.1 539.383 66.7 538.583 68.5C537.716 70.5667 536.649 72.6333 535.383 74.7C534.183 76.7667 533.083 78.7667 532.083 80.7C531.883 81.1 531.549 81.7333 531.083 82.6C530.683 83.4 530.316 84.3 529.983 85.3C529.849 85.7667 529.716 86.2667 529.583 86.8C529.449 87.2667 529.383 87.7667 529.383 88.3C529.383 88.9667 529.516 89.6 529.783 90.2C530.116 90.7333 530.716 91 531.583 91C532.716 91 533.783 90.6333 534.783 89.9C535.849 89.1 536.749 88.2667 537.483 87.4C539.016 85.7333 540.416 83.9 541.683 81.9C543.016 79.8333 544.316 77.6667 545.583 75.4C545.783 75.1333 545.916 75 545.983 75C546.249 75 546.383 75.3 546.383 75.9C546.383 76.3 546.316 76.6 546.183 76.8C544.983 79 543.716 81.1667 542.383 83.3C541.049 85.3667 539.416 87.3667 537.483 89.3C536.616 90.1667 535.616 90.9333 534.483 91.6C533.349 92.2667 532.083 92.6 530.683 92.6Z" fill="#272525"/>
</svg>
