<svg width="368" height="130" viewBox="0 0 368 130" fill="none" xmlns="http://www.w3.org/2000/svg">
<g clip-path="url(#clip0_129_140)">
<path d="M306.228 7.18757C308.435 6.06875 310.019 5.05164 310.985 4.13624C311.951 3.22084 312.434 2.48174 312.434 1.91894C312.434 1.35614 311.917 1.07814 310.884 1.07814C309.576 1.07814 308.16 1.43751 306.644 2.15627C305.128 2.87503 303.571 3.79042 301.988 4.90924C300.398 6.02806 298.848 7.32318 297.332 8.80138C295.815 10.2796 294.433 11.7374 293.192 13.1682C295.533 12.1307 297.815 11.1339 300.022 10.1779C302.229 9.22178 304.296 8.22502 306.228 7.18757ZM255.218 70.0313C258.049 65.1627 260.84 60.2535 263.598 55.3104C266.355 50.3604 269.119 45.5732 271.877 40.9488C274.634 36.3243 277.398 31.9101 280.156 27.7196C282.913 23.5291 285.711 19.6844 288.536 16.1652C284.604 17.9214 280.397 19.9964 275.909 22.3899C271.427 24.7835 267.268 27.6179 263.443 30.8862C259.612 34.1613 256.439 37.8907 253.923 42.0744C251.407 46.2649 250.146 51.0317 250.146 56.3817C250.146 62.0504 251.836 66.6003 255.218 70.0313ZM303.953 2.39359C305.336 1.59347 306.624 1.01711 307.831 0.65773C309.039 0.298352 310.059 0.115273 310.884 0.115273C312.541 0.115273 313.367 0.637388 313.367 1.66806C313.367 2.54955 312.763 3.48529 311.555 4.48206C310.347 5.47882 308.798 6.51627 306.899 7.59441C305 8.67254 302.9 9.75068 300.585 10.8288C298.271 11.9069 295.983 12.9647 293.702 14.0022L292.045 14.7209C289.354 18.152 286.644 22.0848 283.92 26.5126C281.196 30.9404 278.418 35.653 275.587 40.6369C272.756 45.6275 269.877 50.7944 266.945 56.1376C264.014 61.4876 260.994 66.8308 257.895 72.1808C259.277 73.0623 260.706 73.6793 262.189 74.0319C263.671 74.3913 265.168 74.5744 266.691 74.5744C269.797 74.5744 272.897 73.8963 276.003 72.5402C278.968 71.2654 281.8 69.4278 284.49 67.0342C285.523 66.0781 286.489 65.0814 287.388 64.0439C287.664 63.7252 287.972 63.3455 288.321 62.9048C288.663 62.464 288.871 62.247 288.938 62.247C289.213 62.247 289.354 62.4437 289.354 62.8437C288.18 64.5186 286.731 66.1188 285.007 67.6309C282.316 70.0245 279.331 71.9367 276.057 73.3742C272.776 74.8117 269.448 75.5305 266.073 75.5305C264.483 75.5305 262.954 75.3745 261.471 75.049C259.988 74.7303 258.559 74.215 257.177 73.4962C252.896 80.8398 248.361 87.8985 243.571 94.686C238.774 101.467 233.654 107.474 228.207 112.702C222.759 117.93 216.928 122.121 210.722 125.274C204.516 128.427 197.821 130 190.648 130C190.373 130 190.232 129.878 190.232 129.641C190.232 129.322 190.373 129.159 190.648 129.159C197.337 129.159 203.617 127.566 209.481 124.372C215.345 121.178 220.867 116.906 226.039 111.563C231.212 106.213 236.13 100.07 240.786 93.1264C245.442 86.183 249.944 79.0022 254.292 71.5773C252.152 69.7397 250.535 67.5089 249.428 64.8712C248.321 62.2402 247.771 59.4059 247.771 56.3749C247.771 52.7066 248.441 49.2959 249.79 46.1428C251.139 42.9898 252.91 40.0605 255.117 37.3414C257.324 34.6292 259.874 32.1338 262.772 29.8623C265.671 27.5908 268.67 25.5362 271.776 23.6986C274.882 21.861 277.982 20.2066 281.088 18.7284C284.195 17.2502 287.093 15.9144 289.777 14.7209C291.85 12.246 294.057 9.9541 296.399 7.83852C298.74 5.72293 301.263 3.9057 303.953 2.39359Z" fill="#846B5A"/>
<path d="M275.392 88.8207C276.701 88.8207 277.895 87.8646 278.962 85.9457C280.035 84.0267 281.048 81.6331 282.014 78.7649C281.33 79.1649 280.512 79.5853 279.586 80.0193C278.653 80.4601 277.761 80.9957 276.895 81.6331C276.03 82.2705 275.292 83.0503 274.668 83.9657C274.044 84.8811 273.735 85.9389 273.735 87.1391C273.735 88.1765 274.151 88.7325 274.976 88.8139H275.392V88.8207ZM305.403 62.247C305.886 62.247 306.127 62.3691 306.127 62.6064C306.127 62.6878 306.107 62.7488 306.074 62.7827C306.04 62.8234 306.02 62.8844 306.02 62.9658C303.947 65.5967 302.055 67.692 300.331 69.2515C298.606 70.8043 296.916 72.0655 295.258 73.0216C293.601 73.9777 291.964 74.7778 290.341 75.4152C288.717 76.0526 286.979 76.7307 285.114 77.4494C283.94 80.7991 282.578 83.7148 281.028 86.1898C279.478 88.6647 277.7 89.8988 275.701 89.8988C274.668 89.8988 273.943 89.6208 273.527 89.058C273.111 88.502 272.903 87.8646 272.903 87.1458C272.903 85.8711 273.178 84.7523 273.729 83.7962C274.279 82.8401 274.97 81.9993 275.795 81.2805C276.627 80.5618 277.553 79.9447 278.586 79.4226C279.619 78.9073 280.619 78.4055 281.585 77.9241L282.41 77.5647C283.235 75.1711 284.014 72.6554 284.738 70.0245C285.463 67.3936 286.188 64.9797 286.912 62.7827C287.637 60.5925 288.375 58.7753 289.14 57.3378C289.898 55.9003 290.689 55.1815 291.521 55.1815C291.796 55.1815 291.937 55.4188 291.937 55.9003C291.521 56.3003 291.092 57.1751 290.642 58.5312C290.193 59.8873 289.69 61.5215 289.14 63.4404C288.589 65.3526 287.999 67.4478 287.382 69.7262C286.765 71.9977 286.107 74.215 285.416 76.3713C287.14 75.6525 288.797 74.9744 290.381 74.3371C291.964 73.6997 293.534 72.8995 295.091 71.9435C296.64 70.9874 298.264 69.7533 299.955 68.2344C301.646 66.7223 303.457 64.722 305.389 62.247" fill="#846B5A"/>
<path d="M292.36 88.8207C293.669 88.8207 294.863 87.8646 295.93 85.9457C297.003 84.0267 298.016 81.6331 298.982 78.7649C298.298 79.1649 297.479 79.5853 296.554 80.0193C295.621 80.4601 294.729 80.9957 293.863 81.6331C292.998 82.2705 292.26 83.0503 291.636 83.9657C291.012 84.8811 290.703 85.9389 290.703 87.1391C290.703 88.1765 291.119 88.7325 291.944 88.8139H292.36V88.8207ZM322.371 62.247C322.854 62.247 323.095 62.3691 323.095 62.6064C323.095 62.6878 323.075 62.7488 323.042 62.7827C323.008 62.8234 322.988 62.8844 322.988 62.9658C320.921 65.5967 319.023 67.692 317.298 69.2515C315.574 70.8043 313.883 72.0655 312.226 73.0216C310.569 73.9777 308.932 74.7778 307.308 75.4152C305.685 76.0526 303.947 76.7307 302.082 77.4494C300.908 80.7991 299.546 83.7148 297.996 86.1898C296.446 88.6647 294.668 89.8988 292.669 89.8988C291.636 89.8988 290.911 89.6208 290.495 89.058C290.079 88.502 289.878 87.8646 289.878 87.1458C289.878 85.8711 290.153 84.7523 290.703 83.7962C291.253 82.8401 291.944 81.9993 292.776 81.2805C293.602 80.5618 294.534 79.9447 295.567 79.4226C296.601 78.9073 297.6 78.4055 298.566 77.9241L299.392 77.5647C300.217 75.1711 300.995 72.6554 301.72 70.0245C302.444 67.3936 303.169 64.9797 303.893 62.7827C304.618 60.5925 305.356 58.7753 306.121 57.3378C306.879 55.9003 307.671 55.1815 308.503 55.1815C308.778 55.1815 308.919 55.4188 308.919 55.9003C308.503 56.3003 308.073 57.1751 307.624 58.5312C307.174 59.8873 306.671 61.5215 306.121 63.4404C305.571 65.3526 304.98 67.4478 304.363 69.7262C303.746 71.9977 303.088 74.215 302.397 76.3713C304.122 75.6525 305.779 74.9744 307.362 74.3371C308.945 73.6997 310.515 72.8995 312.072 71.9435C313.622 70.9874 315.245 69.7533 316.936 68.2344C318.627 66.7223 320.438 64.722 322.371 62.247Z" fill="#846B5A"/>
<path d="M346.476 62.247C346.61 62.247 346.751 62.3284 346.892 62.4844C347.033 62.6471 347.1 62.803 347.1 62.9658C346.067 64.2406 344.786 65.7188 343.269 67.3936C341.753 69.0684 340.129 70.6483 338.405 72.1198C336.681 73.598 334.923 74.8524 333.125 75.8898C331.327 76.9273 329.609 77.4426 327.952 77.4426C326.986 77.4426 326.154 77.1646 325.47 76.6086C324.779 76.0526 324.363 75.049 324.229 73.6183V73.0216C324.229 71.3468 324.537 69.5499 325.161 67.6377C324.128 69.0752 322.954 70.5127 321.645 71.9502C320.337 73.3878 319.163 74.1065 318.13 74.1065C317.788 74.1065 317.459 73.9506 317.144 73.6251C316.835 73.3064 316.681 72.7504 316.681 71.9502C316.681 71.1501 316.855 70.2754 317.197 69.3193C317.546 68.3632 317.922 67.4072 318.338 66.4443C318.754 65.4882 319.163 64.6271 319.579 63.8676C319.995 63.1082 320.304 62.5725 320.512 62.2538C320.653 61.9351 320.907 61.6978 321.29 61.5351C321.666 61.3791 322.028 61.2977 322.377 61.2977C322.994 61.2977 323.309 61.5757 323.309 62.1385C323.309 62.5386 323.068 63.1353 322.585 63.9354C322.518 64.0982 322.236 64.5321 321.76 65.2509C321.276 65.9696 320.773 66.7901 320.257 67.7055C319.74 68.6209 319.257 69.5431 318.807 70.4585C318.358 71.3739 318.137 72.0723 318.137 72.5537C318.137 73.0352 318.277 73.2725 318.553 73.2725C319.036 73.2725 319.673 72.8724 320.465 72.0791C321.256 71.2857 322.048 70.3636 322.846 69.3261C323.638 68.2887 324.383 67.2512 325.074 66.2138C325.765 65.1763 326.282 64.4169 326.624 63.9422L327.556 62.2674C327.831 61.7859 328.314 61.5486 329.005 61.5486C329.348 61.5486 329.643 61.63 329.884 61.7859C330.126 61.9487 330.247 62.2267 330.247 62.6268C330.247 62.9454 330.039 63.4676 329.629 64.1795C329.213 64.8169 328.797 65.556 328.388 66.3968C327.972 67.2376 327.597 68.1327 327.248 69.0888C326.899 70.0449 326.63 70.9874 326.422 71.9028C326.214 72.8182 326.114 73.6793 326.114 74.4727C326.114 75.3542 326.322 75.9102 326.738 76.1475C327.154 76.3848 327.637 76.5069 328.187 76.5069C329.636 76.5069 331.24 75.9916 332.997 74.9541C334.755 73.9167 336.48 72.6419 338.17 71.123C339.861 69.6041 341.444 68.0513 342.927 66.4579C344.41 64.8644 345.597 63.4676 346.496 62.2674" fill="#846B5A"/>
<path d="M351.756 60.4501C350.857 60.4501 350.012 60.9112 349.22 61.8266C348.429 62.742 347.751 63.8405 347.201 65.1153C348.167 64.7152 349.22 64.0982 350.354 63.2574C351.495 62.4165 352.058 61.6435 352.058 60.9248C352.058 60.6061 351.958 60.4434 351.75 60.4434M367.375 62.2402C367.791 62.2402 367.993 62.4776 367.993 62.959C366.819 64.4779 365.49 65.99 364.007 67.5089C362.525 69.0277 360.935 70.3839 359.251 71.5773C357.56 72.7707 355.802 73.7539 353.971 74.5066C352.146 75.266 350.301 75.6457 348.435 75.6457C346.778 75.6457 345.571 75.1101 344.806 74.0319C344.048 72.9538 343.598 71.618 343.464 70.0245C343.464 68.8243 343.611 67.6106 343.907 66.3697C344.202 65.1356 344.638 63.9964 345.202 62.959C345.765 61.9215 346.463 61.0672 347.288 60.3823C348.113 59.7043 349.079 59.3652 350.187 59.3652C351.703 59.3652 352.528 59.9212 352.669 61.0401C352.669 61.6029 352.461 62.1385 352.045 62.6539C351.629 63.176 351.132 63.671 350.542 64.1524C349.952 64.6338 349.314 65.0475 348.63 65.4068C347.946 65.7662 347.288 66.0239 346.664 66.1866C346.114 67.7055 345.839 69.1769 345.839 70.6144C345.906 71.7333 346.215 72.6486 346.772 73.3674C347.322 74.0862 348.187 74.4455 349.361 74.4455C351.018 74.4455 352.676 74.0658 354.326 73.3064C355.983 72.5469 357.6 71.5909 359.19 70.4314C360.774 69.2786 362.277 67.9767 363.692 66.5392C365.108 65.1017 366.329 63.6642 367.362 62.2267" fill="#846B5A"/>
<path d="M7.01112 41.5387C5.92423 38.9146 4.84405 36.9346 3.77728 35.5988C2.71052 34.263 1.4559 33.1713 0 32.3305H9.50024C8.92995 33.0628 8.64146 33.9307 8.64146 34.9275C8.64146 35.8226 8.84944 36.9075 9.26542 38.1958C9.68139 39.4841 10.3322 41.1997 11.2111 43.3492L23.9049 73.4149L32.1572 53.8186L26.9375 41.5387C25.8506 38.9146 24.7704 36.9346 23.7036 35.5988C22.6369 34.263 21.3755 33.1713 19.9263 32.3305H29.4266C28.8563 33.0628 28.5678 33.9307 28.5678 34.9275C28.5678 35.8226 28.7758 36.9075 29.1918 38.1958C29.6077 39.4841 30.2585 41.1997 31.1374 43.3492L43.8313 73.4149L56.9142 42.4812C58.2628 39.2807 58.9404 36.8668 58.9404 35.2394C58.9404 34.0867 58.6318 33.117 58.0078 32.3305H65.0927C63.6368 33.2255 62.3285 34.4664 61.1611 36.0667C59.9937 37.6669 58.6049 40.386 56.9947 44.2103L43.053 77.1917H42.0399L32.5397 54.8357L23.1132 77.1917H22.1001L7.01112 41.5387Z" fill="#3C3E3C"/>
<path d="M67.3671 65.7866C69.8093 64.4236 71.7549 63.2438 73.2108 62.247C74.6667 61.2503 75.8878 60.0026 76.8741 58.5108C77.8603 57.0191 78.3568 55.2222 78.3568 53.1202C78.3568 51.0181 77.8402 49.3298 76.8003 47.7295C75.7603 46.1293 73.969 45.3291 71.4262 45.3291C68.8834 45.3291 66.7901 46.0343 64.9988 47.4515C63.2074 48.8687 61.8723 50.7469 60.9867 53.0795C60.1011 55.4121 59.665 57.8938 59.665 60.5179C59.665 63.7184 60.2889 66.6545 61.5368 69.3329C62.7311 68.4378 64.6767 67.258 67.3805 65.7933M63.2946 75.2389C61.0336 73.6658 59.3496 71.618 58.2359 69.0956C57.1155 66.5799 56.5586 63.8473 56.5586 60.9112C56.5586 57.9752 57.102 55.1951 58.1956 52.7269C59.2825 50.2587 60.9464 48.2787 63.1806 46.787C65.4147 45.2884 68.1387 44.5426 71.3591 44.5426C74.5795 44.5426 76.8741 45.3156 78.7191 46.8616C80.5574 48.4076 81.4833 50.496 81.4833 53.1202C81.4833 55.4799 80.8728 57.487 79.6517 59.1415C78.4306 60.796 76.9546 62.1318 75.2102 63.1556C73.4725 64.1795 71.1981 65.3458 68.3936 66.6613C67.1994 67.1834 66.0052 67.7394 64.8109 68.3158C63.6167 68.8921 62.6573 69.4685 61.9327 70.0449C63.0263 71.9367 64.3949 73.4149 66.0588 74.493C67.716 75.5711 69.6684 76.1068 71.9025 76.1068C74.3984 76.1068 76.4178 75.3609 77.9811 73.8624C79.5376 72.3639 80.3159 70.6212 80.3159 68.6277C80.3159 67.4207 80.0073 66.268 79.3833 65.1627C78.7594 64.0643 77.8536 63.115 76.6594 62.3284C78.1153 63.0607 79.2022 64.071 79.9335 65.3594C80.6581 66.6477 81.0204 67.9971 81.0204 69.4143C81.0204 71.618 80.175 73.5369 78.491 75.1575C76.8003 76.7849 74.4789 77.5986 71.5201 77.5986C68.2997 77.5986 65.5623 76.812 63.3013 75.2389" fill="#3C3E3C"/>
<path d="M104.013 74.4455C105.697 73.503 106.959 72.1604 107.79 70.4314V51.8522C106.858 50.1706 105.556 48.8212 103.899 47.7973C102.242 46.7734 100.524 46.2649 98.7599 46.2649C95.2309 46.2649 92.4398 47.6685 90.3868 50.4757C88.3338 53.2829 87.3073 56.8089 87.3073 61.0604C87.3073 65.3119 88.3472 68.8379 90.4204 71.6451C92.4935 74.4523 95.2979 75.8559 98.8337 75.8559C100.598 75.8559 102.322 75.3813 104.013 74.4388M90.6954 75.3813C88.5954 73.9099 86.9852 71.9163 85.8648 69.4007C84.7444 66.885 84.1875 64.0982 84.1875 61.0604C84.1875 58.0226 84.7444 55.2358 85.8648 52.7201C86.9785 50.2045 88.5753 48.2109 90.6552 46.7395C92.7283 45.2681 95.1436 44.5358 97.8944 44.5358C99.8132 44.5358 101.658 45.024 103.423 45.9936C105.187 46.9633 106.643 48.394 107.784 50.2858V40.9962C107.784 38.8468 107.69 37.4431 107.509 36.7854C107.328 36.1277 106.898 35.8022 106.227 35.8022C105.865 35.8022 105.321 35.8836 104.59 36.0395C107.341 34.9343 109.448 33.707 110.897 32.3373V71.2993C110.897 72.8724 110.937 73.9777 111.018 74.6083C111.098 75.2389 111.34 75.5508 111.756 75.5508C112.071 75.5508 112.339 75.422 112.574 75.1575C112.809 74.8931 113.077 74.5269 113.393 74.059C112.977 75.1575 112.561 76.0255 112.145 76.6561C111.729 77.2867 111.159 77.5986 110.434 77.5986C109.448 77.5986 108.77 77.1646 108.408 76.2967C108.045 75.4287 107.837 74.0251 107.784 72.0858C106.744 73.9777 105.342 75.3677 103.577 76.256C101.813 77.1511 99.9407 77.5918 97.9682 77.5918C95.2174 77.5918 92.7887 76.8595 90.6887 75.3881" fill="#3C3E3C"/>
<path d="M134.775 74.4455C136.459 73.503 137.72 72.1604 138.552 70.4314V51.8522C137.62 50.1706 136.318 48.8212 134.661 47.7973C133.004 46.7734 131.286 46.2649 129.522 46.2649C125.993 46.2649 123.202 47.6685 121.149 50.4757C119.096 53.2829 118.069 56.8089 118.069 61.0604C118.069 65.3119 119.109 68.8379 121.182 71.6451C123.255 74.4523 126.06 75.8559 129.595 75.8559C131.36 75.8559 133.084 75.3813 134.775 74.4388M121.457 75.3813C119.357 73.9099 117.747 71.9163 116.627 69.4007C115.506 66.885 114.949 64.0982 114.949 61.0604C114.949 58.0226 115.506 55.2358 116.627 52.7201C117.74 50.2045 119.337 48.2109 121.417 46.7395C123.49 45.2681 125.905 44.5358 128.656 44.5358C130.575 44.5358 132.42 45.024 134.185 45.9936C135.949 46.9633 137.405 48.394 138.545 50.2858V40.9962C138.545 38.8468 138.452 37.4431 138.27 36.7854C138.089 36.1277 137.66 35.8022 136.989 35.8022C136.627 35.8022 136.083 35.8836 135.352 36.0395C138.103 34.9343 140.209 33.707 141.659 32.3373V71.2993C141.659 72.8724 141.699 73.9777 141.779 74.6083C141.86 75.2389 142.101 75.5508 142.517 75.5508C142.833 75.5508 143.101 75.422 143.336 75.1575C143.571 74.8931 143.839 74.5269 144.154 74.059C143.738 75.1575 143.322 76.0255 142.906 76.6561C142.491 77.2867 141.92 77.5986 141.196 77.5986C140.209 77.5986 139.532 77.1646 139.169 76.2967C138.807 75.4287 138.599 74.0251 138.545 72.0858C137.506 73.9777 136.103 75.3677 134.339 76.256C132.574 77.1511 130.702 77.5918 128.73 77.5918C125.979 77.5918 123.55 76.8595 121.45 75.3881" fill="#3C3E3C"/>
<path d="M146.576 37.4499C146.006 36.8736 145.718 36.1616 145.718 35.3276C145.718 34.4393 146.006 33.7137 146.576 33.1645C147.147 32.6153 147.851 32.3373 148.683 32.3373C149.562 32.3373 150.28 32.6153 150.823 33.1645C151.367 33.7137 151.642 34.4393 151.642 35.3276C151.642 36.1684 151.367 36.8736 150.823 37.4499C150.28 38.0263 149.562 38.3179 148.683 38.3179C147.851 38.3179 147.147 38.0263 146.576 37.4499ZM147.589 75.3135C147.952 74.5269 148.133 73.0555 148.133 70.906V53.588C148.133 51.4386 148.039 50.0349 147.858 49.3772C147.677 48.7195 147.247 48.394 146.57 48.394C146.207 48.394 145.664 48.4754 144.933 48.6313C147.683 47.5329 149.783 46.2988 151.239 44.9291V70.906C151.239 73.0555 151.42 74.5269 151.783 75.3135C152.145 76.1 153.031 76.7306 154.433 77.2053H144.933C146.335 76.7306 147.214 76.1068 147.583 75.3135" fill="#3C3E3C"/>
<path d="M158.256 75.3067C158.619 74.5201 158.8 73.0487 158.8 70.8992V53.5813C158.8 51.4318 158.706 50.0282 158.525 49.3704C158.344 48.7127 157.914 48.3872 157.237 48.3872C156.874 48.3872 156.331 48.4686 155.6 48.6246C158.35 47.5261 160.45 46.292 161.906 44.9223V52.0827C163.255 49.5128 164.919 47.6074 166.891 46.3734C168.864 45.1393 170.917 44.5222 173.044 44.5222C176.781 44.5222 179.431 45.858 180.987 48.5364C182.544 51.2148 183.322 54.6797 183.322 58.9245V70.8857C183.322 73.0351 183.503 74.5066 183.865 75.2931C184.228 76.0797 185.113 76.7103 186.516 77.185H177.015C178.418 76.7103 179.297 76.0865 179.666 75.2931C180.028 74.5066 180.209 73.0351 180.209 70.8857V59.711C180.209 50.7401 177.613 46.2513 172.42 46.2513C170.393 46.2513 168.501 46.8412 166.737 48.0211C164.972 49.2009 163.362 50.9503 161.906 53.2558V70.8857C161.906 73.0351 162.087 74.5066 162.45 75.2931C162.812 76.0797 163.698 76.7103 165.1 77.185H155.6C157.002 76.7103 157.881 76.0865 158.25 75.2931" fill="#3C3E3C"/>
<path d="M206.892 38.8671C208.422 37.6601 210.045 37.0566 211.756 37.0566C213.004 37.0566 213.963 37.3347 214.641 37.8839C215.312 38.4331 215.654 39.0773 215.654 39.8096C215.654 40.4945 215.406 41.098 214.916 41.6201C214.42 42.1422 213.762 42.4066 212.93 42.4066C213.084 41.6201 212.85 40.9623 212.232 40.4402C211.608 39.9181 210.803 39.6537 209.817 39.6537C208.623 39.6537 207.442 40.0605 206.275 40.8742C205.107 41.6879 204.161 42.9084 203.43 44.5358C204.208 41.9659 205.362 40.0741 206.899 38.8671M208.73 71.6519C210.441 70.3161 211.743 68.5734 212.622 66.4172C213.507 64.2677 213.943 61.9555 213.943 59.4941C213.943 57.0327 213.5 54.7204 212.622 52.5642C211.736 50.4147 210.441 48.6652 208.73 47.3294C207.019 45.9936 204.966 45.3223 202.578 45.3223C200.189 45.3223 198.136 45.9936 196.425 47.3294C194.708 48.6652 193.413 50.4147 192.527 52.5642C191.642 54.7204 191.206 57.0259 191.206 59.4941C191.206 61.9622 191.649 64.2677 192.527 66.4172C193.413 68.5667 194.708 70.3161 196.425 71.6519C198.136 72.9877 200.189 73.659 202.578 73.659C204.966 73.659 207.019 72.9877 208.73 71.6519ZM197.123 85.1523C198.056 87.1458 199.431 88.6579 201.249 89.6818C203.068 90.7057 205.013 91.2143 207.093 91.2143C209.274 91.2143 211.112 90.7125 212.622 89.7157C214.124 88.719 214.883 87.3832 214.883 85.7015C214.883 84.4946 214.386 83.4842 213.4 82.6706C212.414 81.8569 210.984 81.45 209.113 81.45C207.556 81.45 206.194 81.5924 205.027 81.884C203.859 82.1688 202.444 82.6299 200.78 83.2605C199.478 83.7351 198.364 84.1013 197.432 84.359C196.499 84.6234 195.459 84.7522 194.319 84.7522C192.501 84.7522 191.058 84.3183 189.998 83.4571C188.931 82.5892 188.401 81.5517 188.401 80.3448C188.401 78.8191 189.247 77.4562 190.931 76.2492C192.615 75.0422 195.198 74.2828 198.68 73.9641C195.305 73.1233 192.695 71.3535 190.85 68.648C189.005 65.9425 188.086 62.8912 188.086 59.4805C188.086 56.9106 188.643 54.4831 189.763 52.198C190.877 49.9129 192.527 48.0685 194.708 46.6514C196.888 45.2342 199.512 44.529 202.578 44.529C205.644 44.529 208.261 45.2342 210.441 46.6514C212.622 48.0685 214.272 49.9197 215.386 52.198C216.499 54.4831 217.063 56.9106 217.063 59.4805C217.063 62.0504 216.506 64.4779 215.386 66.763C214.265 69.0481 212.622 70.8924 210.441 72.3096C208.261 73.7268 205.637 74.4388 202.578 74.4388C200.089 74.4388 198.009 74.7914 196.345 75.5033C194.681 76.2085 193.467 77.0765 192.682 78.1004C191.903 79.1242 191.514 80.1346 191.514 81.1313C191.514 81.9721 191.776 82.6638 192.293 83.2198C192.809 83.769 193.541 84.047 194.473 84.047C195.56 84.047 196.587 83.8368 197.546 83.4164C198.505 82.996 199.659 82.3383 201.015 81.45C202.678 80.399 204.141 79.6125 205.416 79.0903C206.691 78.5614 208.153 78.3038 209.817 78.3038C212.051 78.3038 213.776 78.8937 214.997 80.0735C216.218 81.2534 216.828 82.6841 216.828 84.3657C216.828 86.305 216.01 88.0273 214.373 89.5191C212.736 91.0176 210.468 91.7635 207.556 91.7635C202.309 91.7635 198.834 89.5598 197.117 85.1523" fill="#3C3E3C"/>
<path d="M94.0701 22.5391C94.2579 22.1255 94.3519 21.3593 94.3519 20.2269V0.413624H91.4132C89.9976 0.413624 88.9308 0.549239 88.2062 0.827248C87.4883 1.10526 86.9918 1.48498 86.7369 1.98675C86.4752 2.48174 86.2807 3.2005 86.1465 4.13624V0H104.201V4.12946C104.067 3.19372 103.865 2.48174 103.611 1.97997C103.349 1.48498 102.859 1.09848 102.141 0.820467C101.423 0.549239 100.35 0.406843 98.9342 0.406843H95.9956V20.2269C95.9956 21.3525 96.0895 22.1255 96.2841 22.5391C96.472 22.9527 96.9349 23.285 97.6729 23.5291H92.688C93.426 23.2782 93.8889 22.9527 94.0768 22.5391" fill="#3C3E3C"/>
<path d="M102.316 22.5391C102.504 22.1255 102.604 21.3593 102.604 20.2269V4.54308C102.604 3.41748 102.557 2.67839 102.463 2.33257C102.369 1.98675 102.141 1.81723 101.792 1.81723C101.571 1.81723 101.289 1.85792 100.934 1.93929C102.376 1.36292 103.476 0.711976 104.241 0V10.3609C104.952 9.01158 105.818 8.01481 106.858 7.37064C107.891 6.72648 108.965 6.401 110.085 6.401C112.044 6.401 113.433 7.1062 114.251 8.50981C115.07 9.91341 115.479 11.7306 115.479 13.9615V20.2337C115.479 21.3593 115.573 22.1323 115.768 22.5459C115.956 22.9595 116.418 23.2918 117.156 23.5359H112.172C112.91 23.285 113.372 22.9595 113.56 22.5459C113.748 22.1323 113.842 21.3661 113.842 20.2337V14.3683C113.842 9.66253 112.48 7.30962 109.756 7.30962C108.696 7.30962 107.696 7.62153 106.777 8.23858C105.851 8.85562 105.006 9.77102 104.248 10.9848V20.2337C104.248 21.3593 104.342 22.1323 104.53 22.5459C104.718 22.9595 105.187 23.2918 105.919 23.5359H100.934C101.672 23.285 102.135 22.9595 102.322 22.5459" fill="#3C3E3C"/>
<path d="M123.517 17.5485C124.798 16.8298 125.818 16.2127 126.583 15.6906C127.348 15.1685 127.985 14.5107 128.502 13.731C129.018 12.9512 129.28 12.0019 129.28 10.9034C129.28 9.80492 129.005 8.91665 128.462 8.07584C127.918 7.23503 126.979 6.81463 125.644 6.81463C124.309 6.81463 123.215 7.18756 122.276 7.92666C121.336 8.67254 120.639 9.65575 120.169 10.8763C119.706 12.1036 119.478 13.3987 119.478 14.7752C119.478 16.4568 119.807 17.996 120.458 19.3996C121.081 18.9318 122.108 18.3147 123.524 17.5417M121.383 22.4984C120.196 21.6712 119.31 20.5998 118.727 19.2776C118.136 17.9554 117.848 16.5246 117.848 14.9854C117.848 13.4462 118.136 11.9883 118.706 10.6932C119.277 9.39808 120.149 8.36063 121.323 7.57407C122.497 6.7875 123.926 6.401 125.61 6.401C127.294 6.401 128.502 6.80784 129.468 7.62153C130.434 8.43522 130.917 9.52691 130.917 10.9034C130.917 12.1443 130.595 13.1953 129.958 14.0632C129.32 14.9311 128.542 15.6296 127.63 16.172C126.717 16.7077 125.523 17.318 124.054 18.0096C123.423 18.2876 122.799 18.5724 122.175 18.8775C121.551 19.1827 121.048 19.481 120.666 19.7861C121.236 20.7761 121.96 21.5559 122.833 22.1187C123.705 22.6815 124.725 22.9663 125.899 22.9663C127.207 22.9663 128.267 22.573 129.086 21.7865C129.904 20.9999 130.313 20.0845 130.313 19.0403C130.313 18.4097 130.152 17.7994 129.824 17.223C129.495 16.6467 129.018 16.1517 128.395 15.7381C129.159 16.1246 129.73 16.6535 130.112 17.3247C130.495 17.996 130.682 18.708 130.682 19.4539C130.682 20.6066 130.24 21.6169 129.354 22.4645C128.468 23.3189 127.247 23.7461 125.697 23.7461C124.007 23.7461 122.571 23.3325 121.39 22.5052" fill="#3C3E3C"/>
<path d="M315.749 101.176L315.769 100.301L322.727 93.8934C323.357 93.317 323.767 92.761 323.954 92.2321C324.142 91.6965 324.236 91.1201 324.236 90.4963C324.236 89.7979 324.068 89.1672 323.726 88.5977C323.391 88.0281 322.941 87.5738 322.371 87.228C321.807 86.8889 321.183 86.7194 320.492 86.7194C319.801 86.7194 319.144 86.8957 318.58 87.2415C318.017 87.5873 317.567 88.0484 317.245 88.6248C316.916 89.2011 316.755 89.825 316.755 90.4963H315.89C315.89 89.6419 316.098 88.8621 316.514 88.1569C316.93 87.4517 317.487 86.8889 318.184 86.4753C318.876 86.0549 319.647 85.8515 320.499 85.8515C321.351 85.8515 322.143 86.0685 322.841 86.4956C323.538 86.9228 324.089 87.4856 324.491 88.1908C324.894 88.896 325.102 89.669 325.102 90.503C325.102 91.0726 325.041 91.5947 324.921 92.0558C324.8 92.5237 324.605 92.9577 324.344 93.3645C324.082 93.7714 323.733 94.1646 323.304 94.5511L316.366 100.932L316.118 100.308H325.102V101.183H315.749V101.176Z" fill="#3C3E3C"/>
<path d="M332.099 100.612C332.763 100.612 333.381 100.443 333.931 100.111C334.488 99.7783 334.924 99.3308 335.259 98.768C335.588 98.212 335.756 97.5881 335.756 96.9169V90.4074C335.756 89.7361 335.588 89.1123 335.259 88.5562C334.93 87.9934 334.488 87.5459 333.931 87.2136C333.381 86.8814 332.763 86.7119 332.099 86.7119C331.435 86.7119 330.824 86.8814 330.268 87.2136C329.711 87.5459 329.275 87.9934 328.939 88.5562C328.61 89.1123 328.443 89.7361 328.443 90.4074V96.9169C328.443 97.5881 328.61 98.212 328.939 98.768C329.268 99.3308 329.711 99.7715 330.268 100.111C330.824 100.443 331.428 100.612 332.099 100.612ZM332.099 101.487C331.274 101.487 330.516 101.277 329.831 100.87C329.147 100.456 328.597 99.9072 328.194 99.2087C327.785 98.5171 327.577 97.7509 327.577 96.9169V90.4074C327.577 89.5733 327.785 88.8071 328.194 88.1155C328.604 87.4238 329.147 86.8746 329.831 86.4542C330.516 86.0406 331.274 85.8372 332.099 85.8372C332.924 85.8372 333.683 86.0474 334.367 86.4542C335.051 86.8678 335.601 87.4171 336.011 88.1155C336.42 88.8071 336.621 89.5733 336.621 90.4074V96.9169C336.621 97.7509 336.413 98.5171 336.011 99.2087C335.601 99.9004 335.051 100.456 334.367 100.87C333.683 101.284 332.924 101.487 332.099 101.487Z" fill="#3C3E3C"/>
<path d="M339.097 101.175L339.117 100.3L346.074 93.8927C346.705 93.3163 347.114 92.7603 347.302 92.2314C347.49 91.6957 347.584 91.1193 347.584 90.4955C347.584 89.7971 347.416 89.1665 347.074 88.5969C346.738 88.0273 346.289 87.573 345.725 87.2272C345.162 86.8882 344.538 86.7187 343.847 86.7187C343.156 86.7187 342.498 86.895 341.935 87.2408C341.371 87.5866 340.922 88.0477 340.6 88.624C340.271 89.2004 340.11 89.8242 340.11 90.4955H339.244C339.244 89.6412 339.452 88.8614 339.868 88.1562C340.284 87.451 340.841 86.8882 341.539 86.4745C342.23 86.0541 343.001 85.8507 343.854 85.8507C344.706 85.8507 345.504 86.0677 346.195 86.4949C346.893 86.9221 347.443 87.4849 347.845 88.1901C348.248 88.8953 348.456 89.6683 348.456 90.5023C348.456 91.0719 348.396 91.594 348.275 92.0551C348.154 92.5229 347.96 92.9569 347.698 93.3638C347.436 93.7706 347.087 94.1639 346.658 94.5504L339.721 100.931L339.472 100.307H348.456V101.182H339.103L339.097 101.175Z" fill="#3C3E3C"/>
<path d="M357.306 101.175V97.9814H350.101V97.1067L355.22 86.1559H356.172L351.053 97.1067H357.306V92.4145H358.172V97.1067H359.95V97.9814H358.172V101.175H357.306Z" fill="#3C3E3C"/>
</g>
<defs>
<clipPath id="clip0_129_140">
<rect width="368" height="130" fill="white"/>
</clipPath>
</defs>
</svg>
