<svg width="24" height="24" viewBox="0 0 24 24" fill="none" xmlns="http://www.w3.org/2000/svg">
<path d="M17.3738 5.39999C16.7609 5.39999 16.2765 5.89999 16.2765 6.50999C16.2765 7.12999 16.7708 7.61999 17.3738 7.61999C17.9867 7.61999 18.4711 7.11999 18.4711 6.50999C18.4711 5.89999 17.9768 5.39999 17.3738 5.39999Z" fill="#272525"/>
<path d="M12.4703 6.83002C9.91976 6.83002 7.84375 8.93002 7.84375 11.51C7.84375 14.09 9.91976 16.19 12.4703 16.19C15.0208 16.19 17.0968 14.09 17.0968 11.51C17.0968 8.93002 15.0208 6.83002 12.4703 6.83002ZM12.4703 14.51C10.8391 14.51 9.50456 13.17 9.50456 11.51C9.50456 9.85002 10.8293 8.51002 12.4703 8.51002C14.1014 8.51002 15.436 9.85002 15.436 11.51C15.436 13.17 14.1113 14.51 12.4703 14.51Z" fill="#272525"/>
<path d="M16.1481 21.01H8.64478C5.53076 21.01 3 18.45 3 15.3V7.71C3 4.56 5.53076 2 8.64478 2H16.1481C19.2621 2 21.7929 4.56 21.7929 7.71V15.3C21.7929 18.45 19.2621 21.01 16.1481 21.01ZM8.64478 3.8C6.50945 3.8 4.76955 5.56 4.76955 7.72V15.31C4.76955 17.47 6.50945 19.23 8.64478 19.23H16.1481C18.2834 19.23 20.0233 17.47 20.0233 15.31V7.72C20.0233 5.56 18.2834 3.8 16.1481 3.8H8.64478Z" fill="#272525"/>
</svg>
