<svg width="24" height="24" viewBox="0 0 24 24" fill="none" xmlns="http://www.w3.org/2000/svg">
<path d="M4.00259 12.5031C6.0059 12.5031 7.88914 13.2805 9.30441 14.6943C10.7223 16.1082 11.5029 17.9914 11.5029 19.9961H14.59C14.59 14.1732 9.84035 9.43621 4.00259 9.43621V12.5031ZM4.00744 7.06659C11.1472 7.06659 16.9562 12.8683 16.9562 20H20.0433C20.0433 11.177 12.8492 4 4.00744 4V7.06659ZM8.27654 17.8577C8.27654 19.0304 7.31889 19.9817 6.13826 19.9817C4.95765 19.9817 4 19.0307 4 17.8577C4 16.6843 4.95732 15.7337 6.13794 15.7337C7.31857 15.7337 8.27654 16.6843 8.27654 17.8577Z" fill="black"/>
</svg>
