<svg width="24" height="24" viewBox="0 0 24 24" fill="none" xmlns="http://www.w3.org/2000/svg">
<path d="M20.8157 10.05C20.6575 10.07 20.4895 10.07 20.3313 10.07C18.5617 10.07 16.9108 9.17 15.942 7.67V15.84C15.942 19.17 13.2729 21.88 9.97101 21.88C6.67905 21.88 4 19.18 4 15.84C4 12.51 6.66916 9.8 9.97101 9.8C10.0995 9.8 10.2182 9.81 10.3368 9.82V12.79C10.2182 12.78 10.0896 12.75 9.97101 12.75C8.29043 12.75 6.9262 14.13 6.9262 15.83C6.9262 17.53 8.29043 18.91 9.97101 18.91C11.6516 18.91 13.1345 17.57 13.1345 15.87L13.1641 2H15.9816C16.2485 4.55 18.2849 6.54 20.8058 6.73L20.8157 10.05Z" fill="#272525"/>
</svg>
